<svg width="67" height="66" viewBox="0 0 67 66" fill="none" xmlns="http://www.w3.org/2000/svg">
<path d="M33.0013 0C14.8056 0 0 14.8029 0 32.9986C2.0677e-05 51.1944 14.8056 66 33.0013 66C51.1971 66 66.0027 51.1944 66.0027 32.9986C66.0027 14.8029 51.1971 0 33.0013 0ZM33.0013 5.01168C48.4883 5.01168 60.9889 17.5119 60.9889 32.9992C60.9888 48.4861 48.4886 60.9895 33.0013 60.9895C17.5144 60.9896 5.01383 48.4865 5.01383 32.9992C5.01385 17.5122 17.5141 5.01168 33.0013 5.01168Z" fill="#FFF200"/>
<path d="M29.7754 41.1373C29.7754 41.1373 29.859 41.1514 29.9954 41.1725C30.1317 41.1937 30.321 41.2218 30.5322 41.25C30.7435 41.2782 30.9768 41.3063 31.2014 41.3274C31.426 41.3486 31.6419 41.3627 31.8183 41.3627C31.9948 41.3627 32.2107 41.3486 32.4353 41.3274C32.6599 41.3063 32.8932 41.2782 33.1045 41.25C33.3157 41.2218 33.5049 41.1937 33.6413 41.1725C33.7777 41.1514 33.8613 41.1373 33.8613 41.1373V42.6095H29.7755V41.5053L29.7754 41.1373Z" fill="#EAE7B4"/>
<path d="M23.5451 22.6382C23.4321 22.6384 23.3217 22.6723 23.228 22.7355C23.1343 22.7988 23.0616 22.8885 23.0192 22.9932C22.9767 23.098 22.9664 23.213 22.9897 23.3236C23.0129 23.4342 23.0685 23.5354 23.1495 23.6143L24.4383 24.9006C24.49 24.9579 24.5527 25.004 24.6228 25.0362C24.6929 25.0684 24.7688 25.0861 24.8458 25.088C24.9229 25.09 24.9996 25.0763 25.0712 25.0477C25.1429 25.0191 25.2079 24.9762 25.2624 24.9217C25.317 24.8671 25.3598 24.8021 25.3884 24.7305C25.417 24.6589 25.4308 24.5822 25.4288 24.5051C25.4268 24.428 25.4092 24.3521 25.377 24.282C25.3448 24.212 25.2986 24.1492 25.2414 24.0975L23.9526 22.8088C23.8995 22.7546 23.8361 22.7116 23.7661 22.6823C23.6962 22.653 23.621 22.638 23.5452 22.6382L23.5451 22.6382Z" fill="#FFFC00"/>
<path d="M22.6094 23.8015C22.6094 21.0344 23.731 18.5293 25.5444 16.7158C27.3578 14.9024 29.8632 13.7808 32.6302 13.7808C35.3973 13.7808 37.9024 14.9024 39.7159 16.7158C41.5293 18.5292 42.651 21.0346 42.651 23.8015C42.651 26.5687 40.8566 28.5993 39.7159 30.8873C37.6394 35.0524 37.2841 42.9178 32.6302 42.9178C27.9761 42.9178 27.6209 35.0524 25.5444 30.8873C24.4037 28.5993 22.6094 26.5685 22.6094 23.8015Z" fill="#FFF200"/>
<path d="M30.1556 45.6676H35.1037C35.5389 45.6676 35.8892 46.0462 35.8892 46.5166V50.2499C35.8892 50.7202 35.5389 51.0989 35.1037 51.0989H30.1556C29.7205 51.0989 29.3701 50.7202 29.3701 50.2499V46.5166C29.3701 46.0463 29.7205 45.6676 30.1556 45.6676Z" fill="#5C5C5C"/>
<path d="M27.7154 37.9273H37.5426C38.4069 37.9273 39.1027 38.6231 39.1027 39.4874V46.3478C39.1027 47.2121 38.4069 47.908 37.5426 47.908H27.7154C26.8511 47.908 26.1553 47.2122 26.1553 46.3478V39.4874C26.1553 38.6231 26.8511 37.9273 27.7154 37.9273Z" fill="#424242"/>
<path d="M26.1572 39.4883V40.3459H38.6753C38.9129 40.3459 39.1041 40.1546 39.1041 39.9171C39.1041 39.6796 38.9129 39.4883 38.6753 39.4883H26.1572V39.4883ZM26.1572 41.2035V42.0611H37.287C37.5245 42.0611 37.7158 41.8698 37.7158 41.6323C37.7158 41.3948 37.5245 41.2035 37.287 41.2035H26.1572V41.2035ZM26.1572 42.9187V43.7763H35.8986C36.1362 43.7763 36.3274 43.585 36.3274 43.3475C36.3274 43.11 36.1361 42.9187 35.8986 42.9187H26.1572V42.9187ZM26.1572 44.6339V45.4915H34.5106C34.7481 45.4915 34.9394 45.3002 34.9394 45.0627C34.9394 44.8251 34.7481 44.6339 34.5106 44.6339H26.1572Z" fill="#7A7A7A"/>
<path d="M28.7442 22.4092C30.2274 22.4092 31.4297 21.2069 31.4297 19.7237C31.4297 18.2405 30.2274 17.0381 28.7442 17.0381C27.261 17.0381 26.0586 18.2405 26.0586 19.7237C26.0586 21.2069 27.261 22.4092 28.7442 22.4092Z" fill="#FFFAA0"/>
</svg>
