<svg width="67" height="69" viewBox="0 0 67 69" fill="none" xmlns="http://www.w3.org/2000/svg">
<path d="M33.0014 1C14.8056 1 0 15.8029 0 33.9986C2.0677e-05 52.1944 14.8056 67 33.0014 67C51.1971 67 66.0027 52.1944 66.0027 33.9986C66.0027 15.8029 51.1971 1 33.0014 1ZM33.0014 6.01168C48.4883 6.01168 60.9889 18.5119 60.9889 33.9992C60.9889 49.4861 48.4886 61.9895 33.0014 61.9895C17.5144 61.9896 5.01383 49.4865 5.01383 33.9992C5.01385 18.5122 17.5141 6.01168 33.0014 6.01168Z" fill="#8FCE0D"/>
<path d="M31.2503 46.7065C28.3987 46.5763 25.6513 45.9383 23.0081 44.7924V38.308C24.5185 39.0763 26.1591 39.7208 27.93 40.2416C29.7008 40.7495 31.2568 41.0034 32.5979 41.0034C33.7047 41.0034 34.512 40.8731 35.0198 40.6127C35.5406 40.3393 35.8011 39.8901 35.8011 39.2651C35.8011 38.8354 35.6123 38.4708 35.2347 38.1713C34.8701 37.8718 34.2516 37.5333 33.3792 37.1557C32.5198 36.7781 31.3544 36.3224 29.8831 35.7885C28.2294 35.1765 26.8948 34.4929 25.8792 33.7377C24.8636 32.9695 24.1214 32.1166 23.6526 31.1791C23.1969 30.2286 22.969 29.0502 22.969 27.644C22.969 25.4955 23.6591 23.8159 25.0393 22.6049C26.4195 21.394 28.4899 20.6453 31.2503 20.3588V17.683H35.2932V20.3198C37.8844 20.463 40.4951 21.101 43.1253 22.2338L40.8011 27.8002C38.0797 26.5763 35.6253 25.9643 33.4378 25.9643C32.3961 25.9643 31.6604 26.0945 31.2307 26.3549C30.8141 26.6023 30.6057 26.9734 30.6057 27.4682C30.6057 27.8979 30.7555 28.256 31.055 28.5424C31.3675 28.8159 31.9013 29.1284 32.6565 29.4799C33.4117 29.8185 34.4599 30.2156 35.8011 30.6713C38.5224 31.6349 40.4755 32.7351 41.6604 33.9721C42.8453 35.1961 43.4378 36.7781 43.4378 38.7182C43.4378 40.9057 42.7412 42.683 41.3479 44.0502C39.9677 45.4174 37.9495 46.2638 35.2932 46.5893V50.3588H31.2503V46.7065Z" fill="#8FCE0D"/>
</svg>
