<svg width="66" height="66" viewBox="0 0 66 66" fill="none" xmlns="http://www.w3.org/2000/svg">
<path d="M33 0C14.805 0 0 14.8023 0 32.9973C2.06762e-05 51.1923 14.805 65.9973 33 65.9973C51.195 65.9973 66 51.1923 66 32.9973C66 14.8023 51.195 0 33 0ZM33 5.01147C48.4863 5.01147 60.9864 17.5112 60.9864 32.9978C60.9864 48.4841 48.4866 60.987 33 60.987C17.5137 60.9872 5.01362 48.4845 5.01362 32.9978C5.01364 17.5115 17.5134 5.01147 33 5.01147Z" fill="#45D6A9"/>
<path d="M18.102 26.6181C17.639 26.6181 17.1758 26.7964 16.821 27.1512L14.5897 29.3825C13.8803 30.0919 13.8803 31.2334 14.5897 31.9428L24.5083 41.8614L29.3 46.6531L34.0916 41.8614L51.4069 24.5461C52.1163 23.8367 52.1163 22.6952 51.4069 21.9858L49.1756 19.7545C48.4661 19.0451 47.3247 19.0451 46.6152 19.7545L29.3 37.0698L19.3814 27.1512C19.0266 26.7964 18.5649 26.6181 18.102 26.6181Z" fill="#45D6A9"/>
</svg>
