<svg width="1366" height="798" viewBox="0 0 1366 798" fill="none" xmlns="http://www.w3.org/2000/svg">
<rect y="32" width="1366" height="680" fill="white"/>
<g opacity="0.05">
<path d="M603.499 582.5C672.499 679.5 817.899 608.9 923.499 658.5C1055.5 720.5 1118 646.5 1179.5 646.5C1241 646.5 1248 738.5 1343 693C1370.78 679.695 1464.68 687.997 1467.5 636C1557.48 527.319 1513 439 1363 495C1213 551 1192.5 325 1048 408M405.499 679.5C274.999 756.5 225 581.5 98.9996 641.5C-27.0004 701.5 -215 575 -95.0004 803.5" stroke="black" stroke-width="2" stroke-linecap="round" stroke-linejoin="round"/>
<path d="M782.999 136C894.999 86.5 916.499 213 1045 136C1147.8 74.3999 1185 114 1247.5 151C1310 188 1352.6 130.3 1393 113.5" stroke="black" stroke-width="2" stroke-linecap="round"/>
</g>
<rect x="640.305" y="652.54" width="74" height="52" transform="rotate(-141.99 640.305 652.54)" fill="url(#paint0_linear)"/>
<rect x="336" y="685.037" width="74" height="52" transform="rotate(-23.1032 336 685.037)" fill="url(#paint1_linear)"/>
<rect x="854.934" y="138.23" width="74" height="52" transform="rotate(165.006 854.934 138.23)" fill="url(#paint2_linear)"/>
<rect x="1122.67" y="408.23" width="74" height="52" transform="rotate(157.086 1122.67 408.23)" fill="url(#paint3_linear)"/>
<defs>
<linearGradient id="paint0_linear" x1="649.516" y1="689.813" x2="708.886" y2="674.624" gradientUnits="userSpaceOnUse">
<stop stop-color="white" stop-opacity="0"/>
<stop offset="1" stop-color="white"/>
</linearGradient>
<linearGradient id="paint1_linear" x1="345.211" y1="722.31" x2="404.581" y2="707.121" gradientUnits="userSpaceOnUse">
<stop stop-color="white" stop-opacity="0"/>
<stop offset="1" stop-color="white"/>
</linearGradient>
<linearGradient id="paint2_linear" x1="857.208" y1="154.605" x2="923.515" y2="160.314" gradientUnits="userSpaceOnUse">
<stop stop-color="white" stop-opacity="0"/>
<stop offset="1" stop-color="white"/>
</linearGradient>
<linearGradient id="paint3_linear" x1="1124.94" y1="424.605" x2="1191.25" y2="430.314" gradientUnits="userSpaceOnUse">
<stop stop-color="white" stop-opacity="0"/>
<stop offset="1" stop-color="white"/>
</linearGradient>
</defs>
</svg>
