<svg width="72" height="72" viewBox="0 0 72 72" fill="none" xmlns="http://www.w3.org/2000/svg">
<path fill-rule="evenodd" clip-rule="evenodd" d="M21.5995 18H15.0946C19.9923 11.0833 27.3825 7.2 35.9995 7.2C51.9053 7.2 64.7995 20.0942 64.7995 36H71.9995C71.9995 16.1177 55.8818 0 35.9995 0C25.9043 0 17.0099 4.25704 10.7995 11.7733V7.2H3.59955V25.2H21.5995V18ZM50.4 54H56.905C52.0073 60.9167 44.617 64.8 36 64.8C20.0942 64.8 7.2 51.9058 7.2 36H0C0 55.8823 16.1177 72 36 72C46.0952 72 54.9896 67.743 61.2 60.2267V64.8H68.4V46.8H50.4V54ZM36.0016 50.3938C37.9905 50.3938 39.6028 48.7821 39.6028 46.7938C39.6028 44.8056 37.9905 43.1938 36.0016 43.1938C34.0128 43.1938 32.4005 44.8056 32.4005 46.7938C32.4005 48.7821 34.0128 50.3938 36.0016 50.3938ZM39.613 17.9939H32.4107V39.5939H39.613V17.9939Z" fill="#D25858"/>
</svg>
