<svg width="1366" height="735" viewBox="0 0 1366 735" fill="none" xmlns="http://www.w3.org/2000/svg">
<rect y="55" width="1366" height="680" fill="white"/>
<g opacity="0.05">
<path d="M444.5 186.5C458.167 153.333 511.9 99.4 617.5 149C749.5 211 758 87.5 819.5 87.5C881 87.5 951 133 1046 87.5C1122 51.1 1168.33 14.6667 1182 1" stroke="black" stroke-width="2" stroke-linecap="round" stroke-linejoin="round"/>
<path d="M723.5 211C790 173.5 782.5 149.5 834 128.5C899.948 101.608 916.5 236 1045 159C1147.8 97.4 1185 137 1247.5 174C1310 211 1352.6 153.3 1393 136.5" stroke="black" stroke-width="2" stroke-linecap="round"/>
</g>
<rect x="420" y="162.998" width="74" height="52" transform="rotate(-39.428 420 162.998)" fill="url(#paint0_linear)"/>
<rect x="705" y="200.998" width="74" height="52" transform="rotate(-39.428 705 200.998)" fill="url(#paint1_linear)"/>
<defs>
<linearGradient id="paint0_linear" x1="430.761" y1="193.21" x2="488.581" y2="185.083" gradientUnits="userSpaceOnUse">
<stop stop-color="white"/>
<stop offset="1" stop-color="white" stop-opacity="0"/>
</linearGradient>
<linearGradient id="paint1_linear" x1="715.847" y1="224.807" x2="771.427" y2="226.49" gradientUnits="userSpaceOnUse">
<stop stop-color="white"/>
<stop offset="1" stop-color="white" stop-opacity="0"/>
</linearGradient>
</defs>
</svg>
