<svg width="1366" height="678" viewBox="0 0 1366 678" fill="none" xmlns="http://www.w3.org/2000/svg">
<g opacity="0.05" clip-path="url(#clip0)">
<path d="M1014.89 442.592C1016.07 442.125 1015.36 444.037 1014.47 444.869C1013.59 445.701 1013.71 445.986 1012.46 446.004C1011.21 446.022 1011.79 444.832 1012.39 443.576C1012.98 442.319 1013.06 443.315 1014.89 442.592Z" fill="black"/>
<path d="M925.522 388.149C925.851 387.348 926.616 388.665 926.649 389.521C926.683 390.377 926.911 390.462 926.294 391.063C925.676 391.664 925.247 390.796 924.817 389.849C924.388 388.902 925.025 389.406 925.522 388.149Z" fill="black"/>
<path d="M908.432 302.211C907.137 301.294 909.949 300.851 911.526 301.252C913.102 301.652 913.384 301.349 914.156 302.587C914.927 303.826 913.116 304.02 911.156 304.154C909.197 304.287 910.452 303.638 908.432 302.211Z" fill="black"/>
<path d="M836.867 251.21C837.229 253.292 833.841 251.289 832.646 249.492C831.452 247.695 830.828 247.756 831.351 245.801C831.875 243.846 833.961 245.236 836.135 246.815C838.309 248.393 836.283 247.962 836.867 251.21Z" fill="black"/>
<path d="M799.011 155.613C800.205 155.674 798.729 156.997 797.608 157.349C796.488 157.701 796.448 157.993 795.414 157.544C794.381 157.094 795.414 156.299 796.488 155.479C797.561 154.66 797.145 155.522 799.011 155.613Z" fill="black"/>
<path d="M698.144 213.371C696.453 214.949 696.178 211.137 697.084 209.121C697.989 207.106 697.54 206.656 699.674 205.831C701.807 205.005 701.827 207.44 701.74 210.08C701.653 212.721 700.781 210.912 698.144 213.371Z" fill="black"/>
<path d="M663.589 222.125C662.697 220.911 665.468 221.275 666.796 222.088C668.125 222.902 668.494 222.695 668.809 224.061C669.124 225.427 667.353 225.106 665.454 224.668C663.555 224.231 664.991 223.989 663.589 222.125Z" fill="black"/>
<path d="M522.739 242.984C522.289 244.022 521.337 242.286 521.323 241.163C521.31 240.04 521.008 239.949 521.82 239.172C522.632 238.395 523.162 239.542 523.705 240.786C524.249 242.031 523.437 241.369 522.739 242.984Z" fill="black"/>
<path d="M608.502 356.253C609.891 357.601 606.348 357.65 604.51 356.86C602.672 356.071 602.256 356.411 601.578 354.754C600.9 353.096 603.161 353.194 605.604 353.376C608.046 353.558 606.342 354.147 608.502 356.253Z" fill="black"/>
<path d="M476.918 418.813C477.455 418.084 477.878 419.56 477.69 420.41C477.502 421.259 477.69 421.405 476.945 421.873C476.201 422.34 475.966 421.387 475.785 420.349C475.603 419.311 476.093 419.954 476.918 418.813Z" fill="black"/>
<path d="M477.2 509.499C477.2 508.892 478.106 509.572 478.395 510.142C478.683 510.713 478.871 510.719 478.636 511.284C478.401 511.848 477.838 511.375 477.247 510.834C476.657 510.294 477.247 510.482 477.2 509.499Z" fill="black"/>
<path d="M476.06 614.754C475.389 616.175 474.154 613.698 474.214 612.15C474.275 610.602 473.859 610.414 475.06 609.4C476.261 608.386 476.925 610.007 477.569 611.768C478.213 613.528 477.16 612.52 476.06 614.754Z" fill="black"/>
<path d="M354.131 619.605C353.594 619.915 353.775 618.931 354.131 618.47C354.487 618.008 354.406 617.863 355.003 617.772C355.6 617.68 355.439 618.294 355.245 618.986C355.05 619.678 354.956 619.119 354.131 619.605Z" fill="black"/>
<path d="M365.329 596.59C366.866 596.026 365.88 598.472 364.699 599.511C363.518 600.549 363.672 600.925 362.089 600.913C360.505 600.901 361.236 599.377 362.089 597.756C362.941 596.135 362.941 597.465 365.329 596.59Z" fill="black"/>
<path d="M342.295 502.681C341.087 502.293 343.047 501.327 344.308 501.279C345.569 501.23 345.71 500.933 346.623 501.679C347.535 502.426 346.247 502.973 344.825 503.501C343.402 504.029 344.187 503.282 342.295 502.681Z" fill="black"/>
<path d="M460.158 426.942C460.976 426.116 461.198 428.034 460.775 429.073C460.352 430.111 460.594 430.323 459.534 430.772C458.473 431.222 458.42 429.995 458.406 428.666C458.393 427.336 458.876 428.223 460.158 426.942Z" fill="black"/>
<path d="M399.925 333.178C400.039 333.609 399.294 333.245 399.005 332.893C398.717 332.541 398.589 332.565 398.663 332.146C398.737 331.727 399.193 331.982 399.676 332.274C400.159 332.565 399.737 332.51 399.925 333.178Z" fill="black"/>
<path d="M441.941 225.713C441.605 226.004 441.585 225.276 441.773 224.899C441.961 224.523 441.874 224.432 442.29 224.292C442.706 224.152 442.686 224.614 442.652 225.112C442.618 225.609 442.464 225.263 441.941 225.713Z" fill="black"/>
<path d="M336.773 161.763C339.282 161.605 336.585 164.713 334.337 165.703C332.09 166.692 332.11 167.305 329.842 166.607C327.574 165.909 329.412 164.021 331.492 162.06C333.572 160.099 332.875 162.006 336.773 161.763Z" fill="black"/>
<path d="M236.195 154.344C237.577 154.399 235.886 155.953 234.591 156.366C233.296 156.779 233.249 157.125 232.061 156.615C230.874 156.105 232.001 155.176 233.276 154.186C234.551 153.197 234.034 154.259 236.195 154.344Z" fill="black"/>
<path d="M107.959 185.233C109.22 183.375 110.395 187.011 109.972 189.148C109.549 191.285 110.113 191.613 108.248 192.833C106.382 194.053 105.778 191.692 105.242 189.13C104.705 186.568 105.993 188.122 107.959 185.233Z" fill="black"/>
<path d="M227.801 304.585C227.049 304.324 228.297 303.747 229.102 303.735C229.908 303.723 229.988 303.54 230.545 304.02C231.102 304.5 230.283 304.827 229.384 305.143C228.485 305.459 228.975 304.991 227.801 304.585Z" fill="black"/>
<path d="M153.558 394.299C152.679 395.173 152.458 393.133 152.887 392.035C153.316 390.936 153.082 390.711 154.229 390.213C155.376 389.716 155.417 391.045 155.417 392.453C155.417 393.862 154.92 392.939 153.558 394.299Z" fill="black"/>
<path d="M149.485 478.052C150.7 476.71 151.196 479.691 150.639 481.33C150.082 482.969 150.458 483.291 148.848 484.068C147.238 484.845 147.036 482.939 146.915 480.869C146.795 478.799 147.6 480.177 149.485 478.052Z" fill="black"/>
<path d="M91.9765 561.793C91.2586 563.857 89.145 560.615 88.9571 558.466C88.7693 556.317 88.152 556.116 89.6281 554.532C91.1042 552.947 92.312 555.084 93.5197 557.44C94.7275 559.795 93.097 558.569 91.9765 561.793Z" fill="black"/>
<path d="M93.5197 645.078C94.3584 644.21 94.6134 646.201 94.1907 647.282C93.768 648.362 94.023 648.581 92.9293 649.06C91.8356 649.54 91.7551 648.271 91.7282 646.893C91.7014 645.515 92.1778 646.426 93.5197 645.078Z" fill="black"/>
<path d="M30.6297 600.342C29.9185 600.573 30.4217 599.474 30.9854 599.025C31.549 598.576 31.4886 598.418 32.2065 598.418C32.9245 598.418 32.5554 599.134 32.1327 599.857C31.71 600.579 31.7369 599.99 30.6297 600.342Z" fill="black"/>
<path d="M133.946 516.043C133.006 516.092 134.033 514.938 134.872 514.574C135.71 514.21 135.717 513.967 136.562 514.252C137.408 514.537 136.717 515.217 135.891 515.952C135.066 516.687 135.408 515.994 133.946 516.043Z" fill="black"/>
<path d="M41.0767 426.104C41.4256 427.227 39.4127 426.329 38.6276 425.406C37.8426 424.483 37.5004 424.562 37.648 423.451C37.7956 422.34 39.0436 422.984 40.3319 423.724C41.6202 424.465 40.5131 424.325 41.0767 426.104Z" fill="black"/>
<path d="M47.8938 335.515C49.9067 334.647 48.7929 338.004 47.2966 339.48C45.8004 340.955 46.0352 341.459 43.9082 341.556C41.7812 341.653 42.6267 339.546 43.6398 337.306C44.653 335.066 44.7604 336.863 47.8938 335.515Z" fill="black"/>
<path d="M70.8745 248.314C71.7602 248.496 70.4652 249.322 69.5728 249.45C68.6804 249.577 68.62 249.796 67.9088 249.34C67.1976 248.885 68.0564 248.405 69.0092 247.92C69.962 247.434 69.4923 248.029 70.8745 248.314Z" fill="black"/>
<path d="M1.37547 162.746C1.77134 160.876 3.97883 163.517 4.38142 165.375C4.784 167.233 5.3409 167.348 4.2338 168.866C3.1267 170.383 1.82502 168.629 0.509922 166.686C-0.805179 164.744 0.758179 165.66 1.37547 162.746Z" fill="black"/>
<path d="M0.435638 75.2537C-0.235331 73.9789 2.36803 74.6466 3.52881 75.5937C4.68959 76.5407 5.07875 76.3829 5.16597 77.7306C5.2532 79.0783 3.61603 78.5623 1.87151 77.9431C0.126992 77.3239 1.5159 77.2267 0.435638 75.2537Z" fill="black"/>
<path d="M944.604 643.925C945.557 645.303 942.484 644.817 941.035 643.87C939.586 642.923 939.163 643.135 938.881 641.605C938.599 640.076 940.538 640.488 942.612 640.998C944.685 641.508 943.115 641.782 944.604 643.925Z" fill="black"/>
<path d="M905.762 596.894C904.923 597.501 905.091 595.819 905.614 595.006C906.138 594.193 905.99 593.974 906.956 593.749C907.922 593.525 907.761 594.563 907.533 595.692C907.305 596.821 907.07 595.995 905.762 596.894Z" fill="black"/>
<path d="M817.986 476C819.375 476.874 816.516 477.475 814.879 477.135C813.242 476.795 812.967 477.135 812.101 475.921C811.236 474.707 813.081 474.409 815.087 474.173C817.093 473.936 815.832 474.64 817.986 476Z" fill="black"/>
<path d="M715.75 537.2C715.616 538.523 713.885 536.829 713.455 535.567C713.026 534.304 712.637 534.255 713.294 533.138C713.952 532.021 714.978 533.138 716.045 534.419C717.112 535.7 715.951 535.136 715.75 537.2Z" fill="black"/>
<path d="M619.043 529.429C620.459 528.361 620.331 531.25 619.466 532.713C618.6 534.176 618.902 534.535 617.225 535.002C615.547 535.47 615.742 533.636 616.044 531.657C616.346 529.678 616.876 531.093 619.043 529.429Z" fill="black"/>
<path d="M531.321 495.621C532.495 497.406 528.59 496.695 526.771 495.457C524.953 494.218 524.403 494.473 524.088 492.513C523.772 490.552 526.235 491.135 528.865 491.851C531.495 492.567 529.489 492.846 531.321 495.621Z" fill="black"/>
<path d="M451.234 432.059C449.731 433.025 450.1 430.147 451.086 428.745C452.072 427.342 451.804 426.966 453.522 426.614C455.239 426.262 454.864 428.083 454.414 430.038C453.965 431.993 453.575 430.548 451.234 432.059Z" fill="black"/>
<path d="M291.818 519.17C292.885 520.93 289.134 520.123 287.437 518.86C285.739 517.597 285.196 517.834 284.974 515.928C284.753 514.021 287.101 514.671 289.611 515.448C292.12 516.225 290.168 516.432 291.818 519.17Z" fill="black"/>
<path d="M268.777 386.079C269.643 387.73 266.288 386.826 264.805 385.6C263.322 384.373 262.825 384.568 262.725 382.825C262.624 381.083 264.738 381.775 266.972 382.601C269.206 383.426 267.422 383.529 268.777 386.079Z" fill="black"/>
<path d="M1175.05 551.764C1174.19 551.885 1175.02 550.744 1175.72 550.343C1176.42 549.942 1176.43 549.736 1177.23 549.912C1178.03 550.088 1177.46 550.786 1176.82 551.515C1176.18 552.243 1176.38 551.569 1175.05 551.764Z" fill="black"/>
<path d="M1035.71 603.092C1036.07 604.986 1032.95 603.195 1031.84 601.575C1030.74 599.954 1030.17 600.02 1030.62 598.23C1031.07 596.439 1032.98 597.689 1034.98 599.098C1036.99 600.506 1035.15 600.142 1035.71 603.092Z" fill="black"/>
<path d="M1038.82 443.612C1040.29 443.855 1038.23 445.282 1036.81 445.555C1035.39 445.828 1035.27 446.162 1034.08 445.476C1032.89 444.79 1034.25 443.934 1035.76 443.084C1037.28 442.234 1036.54 443.236 1038.82 443.612Z" fill="black"/>
<path d="M940.136 409.033C940.532 409.792 938.995 409.373 938.317 408.814C937.64 408.256 937.412 408.341 937.365 407.546C937.318 406.75 938.284 407.06 939.31 407.442C940.337 407.825 939.518 407.861 940.136 409.033Z" fill="black"/>
<path d="M821.609 405.712C820.649 405.305 822.347 404.662 823.394 404.71C824.44 404.759 824.581 404.534 825.259 405.214C825.937 405.894 824.83 406.24 823.622 406.58C822.414 406.92 823.098 406.344 821.609 405.712Z" fill="black"/>
<path d="M782.485 324.327C781.002 325.134 781.579 322.469 782.605 321.225C783.632 319.98 783.417 319.61 785.055 319.403C786.692 319.197 786.209 320.867 785.618 322.657C785.028 324.448 784.793 323.07 782.485 324.327Z" fill="black"/>
<path d="M1363.19 444.687C1362.3 444.753 1363.24 443.643 1364.03 443.278C1364.82 442.914 1364.81 442.671 1365.62 442.932C1366.44 443.193 1365.79 443.849 1365.06 444.559C1364.34 445.269 1364.57 444.583 1363.19 444.687Z" fill="black"/>
<path d="M1271.07 373.482C1270.23 374.344 1269.98 372.365 1270.4 371.291C1270.82 370.216 1270.56 369.998 1271.65 369.512C1272.74 369.026 1272.82 370.301 1272.85 371.673C1272.88 373.045 1272.37 372.116 1271.07 373.482Z" fill="black"/>
<path d="M1291.27 284.575C1290.72 286.305 1288.9 283.652 1288.69 281.88C1288.48 280.107 1287.98 279.949 1289.17 278.608C1290.35 277.266 1291.4 279.02 1292.45 280.945C1293.51 282.869 1292.13 281.892 1291.27 284.575Z" fill="black"/>
<path d="M1250.08 164.495C1249.63 164.343 1250.36 164.003 1250.83 163.991C1251.3 163.979 1251.35 163.869 1251.68 164.149C1252.01 164.428 1251.53 164.622 1251.01 164.81C1250.49 164.999 1250.76 164.731 1250.08 164.495Z" fill="black"/>
<path d="M1154.4 140.952C1153.9 141.996 1152.99 140.199 1153.05 139.07C1153.11 137.941 1152.78 137.807 1153.64 137.055C1154.51 136.302 1154.99 137.473 1155.5 138.76C1156.01 140.048 1155.17 139.331 1154.4 140.952Z" fill="black"/>
<path d="M1026.17 197.884C1025.63 199.639 1023.76 196.973 1023.52 195.183C1023.29 193.392 1022.77 193.24 1023.95 191.874C1025.13 190.508 1026.22 192.262 1027.31 194.199C1028.39 196.136 1026.99 195.146 1026.17 197.884Z" fill="black"/>
<path d="M971.47 65.2612C971.537 65.504 971.108 65.2976 970.94 65.0973C970.772 64.8969 970.698 64.9091 970.739 64.6663C970.779 64.4234 971.047 64.5752 971.329 64.7391C971.611 64.903 971.363 64.8727 971.47 65.2612Z" fill="black"/>
<path d="M1150.1 636.615C1150.14 636.178 1150.71 636.743 1150.85 637.162C1150.99 637.581 1151.11 637.593 1150.89 637.963C1150.68 638.333 1150.34 637.963 1149.99 637.532C1149.64 637.101 1150.02 637.295 1150.1 636.615Z" fill="black"/>
<path d="M1194.14 519.959C1196.56 520.353 1193.18 522.709 1190.79 523.158C1188.4 523.607 1188.25 524.19 1186.29 523.037C1184.32 521.883 1186.57 520.493 1189.07 519.085C1191.56 517.676 1190.39 519.333 1194.14 519.959Z" fill="black"/>
<path d="M1073.65 457.423C1073.75 456.95 1074.32 457.618 1074.4 458.091C1074.49 458.565 1074.65 458.589 1074.37 458.971C1074.09 459.354 1073.76 458.911 1073.42 458.419C1073.09 457.927 1073.49 458.164 1073.65 457.423Z" fill="black"/>
<path d="M1085.33 359.125C1084.4 358.76 1086 358.105 1087 358.129C1088.01 358.153 1088.13 357.935 1088.8 358.56C1089.46 359.185 1088.42 359.556 1087.27 359.908C1086.13 360.26 1086.77 359.695 1085.33 359.125Z" fill="black"/>
<path d="M89.2926 72.8558C89.1987 74.3189 87.2193 72.5037 86.7094 71.1195C86.1995 69.7354 85.7566 69.699 86.4343 68.4423C87.112 67.1856 88.2929 68.4059 89.4939 69.79C90.695 71.1742 89.4403 70.5732 89.2926 72.8558Z" fill="black"/>
<path d="M188.623 62.6386C189.408 64.041 186.489 63.3307 185.188 62.3047C183.886 61.2787 183.45 61.4609 183.322 59.9614C183.195 58.4619 185.027 59.0083 186.979 59.676C188.932 60.3438 187.388 60.4592 188.623 62.6386Z" fill="black"/>
<path d="M284.156 6.44112C281.915 7.30317 283.29 3.68497 285.001 2.12477C286.712 0.564573 286.477 0.0121294 288.805 -1.21675e-05C291.134 -0.0121538 290.107 2.24011 288.893 4.64415C287.678 7.04819 287.645 5.0934 284.156 6.44112Z" fill="black"/>
<path d="M382.909 50.667C382.386 50.4848 383.264 50.0599 383.821 50.0599C384.378 50.0599 384.445 49.9263 384.835 50.2663C385.224 50.6063 384.653 50.8248 384.016 51.0494C383.379 51.2741 383.734 50.9705 382.909 50.667Z" fill="black"/>
<path d="M483.219 58.0976C483.957 58.4801 482.548 58.899 481.722 58.7958C480.897 58.6926 480.763 58.8747 480.266 58.2919C479.77 57.7091 480.676 57.4905 481.669 57.2902C482.662 57.0899 482.065 57.5088 483.219 58.0976Z" fill="black"/>
<path d="M575.229 128.124C574.846 126.595 577.47 127.93 578.456 129.205C579.443 130.48 579.899 130.419 579.61 131.888C579.322 133.357 577.711 132.423 576.014 131.348C574.316 130.273 575.826 130.498 575.229 128.124Z" fill="black"/>
<path d="M678.699 80.1104C679.256 81.0878 677.216 80.6021 676.297 79.8979C675.378 79.1937 675.083 79.2908 674.955 78.2649C674.828 77.2389 676.143 77.5971 677.505 78.0524C678.867 78.5077 677.827 78.5805 678.699 80.1104Z" fill="black"/>
<path d="M777.479 39.1142C775.057 39.3146 777.593 36.2549 779.74 35.2532C781.887 34.2515 781.861 33.6566 784.081 34.2879C786.302 34.9193 784.551 36.783 782.585 38.7257C780.619 40.6683 781.263 38.8289 777.479 39.1142Z" fill="black"/>
<path d="M849.877 163.189C849.622 163.438 849.568 162.856 849.696 162.546C849.823 162.236 849.763 162.17 850.085 162.036C850.407 161.902 850.414 162.279 850.414 162.679C850.414 163.08 850.266 162.807 849.877 163.189Z" fill="black"/>
<path d="M1291.95 14.5456C1292.17 15.602 1290.41 14.6367 1289.76 13.7382C1289.12 12.8397 1288.8 12.8883 1289.03 11.8806C1289.25 10.8728 1290.37 11.5467 1291.49 12.3177C1292.61 13.0887 1291.6 12.8944 1291.95 14.5456Z" fill="black"/>
<path d="M1195 91.1471C1195.96 93.1869 1191.94 91.9242 1190.22 90.3761C1188.49 88.8281 1187.88 89.0284 1187.87 86.9158C1187.86 84.8031 1190.36 85.7441 1193.02 86.849C1195.67 87.9539 1193.51 88.0024 1195 91.1471Z" fill="black"/>
<path d="M1095.31 148.437C1094.85 149.403 1094.02 147.733 1094.05 146.689C1094.08 145.645 1093.79 145.517 1094.6 144.825C1095.4 144.133 1095.86 145.22 1096.31 146.41C1096.76 147.6 1096.04 146.938 1095.31 148.437Z" fill="black"/>
<path d="M997.987 9.68902C999.63 10.9032 995.974 11.401 993.961 10.8243C991.948 10.2475 991.559 10.6361 990.606 9.00301C989.653 7.36997 992.008 7.18177 994.558 7.07857C997.108 6.97537 995.417 7.75243 997.987 9.68902Z" fill="black"/>
<path d="M897.952 87.189C898.193 87.0372 898.133 87.4986 897.952 87.7171C897.771 87.9357 897.831 88.0024 897.556 88.0571C897.281 88.1117 897.341 87.8203 897.422 87.5107C897.502 87.2011 897.576 87.4257 897.952 87.189Z" fill="black"/>
<path d="M1192.52 419.153C1193.05 420.276 1190.84 419.59 1189.89 418.74C1188.94 417.89 1188.6 418.006 1188.55 416.846C1188.5 415.686 1189.89 416.19 1191.39 416.791C1192.88 417.392 1191.7 417.417 1192.52 419.153Z" fill="black"/>
<path d="M1255.79 459.585C1255.75 457.296 1259.07 459.906 1260.05 462.013C1261.04 464.119 1261.72 464.125 1260.83 466.159C1259.94 468.193 1257.94 466.414 1255.86 464.423C1253.78 462.432 1255.87 463.178 1255.79 459.585Z" fill="black"/>
<path d="M1210.05 542.779C1209.3 542.779 1210.22 541.911 1210.93 541.686C1211.63 541.462 1211.65 541.279 1212.3 541.559C1212.95 541.838 1212.3 542.342 1211.63 542.858C1210.96 543.374 1211.22 542.833 1210.05 542.779Z" fill="black"/>
<path d="M1260.8 667.109C1259.32 667.516 1260.46 665.288 1261.66 664.432C1262.87 663.576 1262.76 663.218 1264.23 663.321C1265.7 663.424 1264.9 664.826 1263.94 666.271C1262.97 667.716 1263.11 666.472 1260.8 667.109Z" fill="black"/>
<path d="M1112.76 606.231C1113.04 606.158 1112.82 606.565 1112.6 606.729C1112.38 606.893 1112.4 606.959 1112.13 606.935C1111.85 606.911 1112 606.656 1112.18 606.389C1112.35 606.122 1112.33 606.352 1112.76 606.231Z" fill="black"/>
<path d="M1022.74 646.086C1020.84 647.263 1021.4 643.657 1022.64 641.952C1023.88 640.246 1023.57 639.748 1025.72 639.341C1027.88 638.934 1027.39 641.199 1026.76 643.627C1026.13 646.055 1025.7 644.252 1022.74 646.086Z" fill="black"/>
<path d="M926.079 677.879C925.361 678.425 925.408 676.95 925.864 676.209C926.32 675.468 926.153 675.28 927.005 675.037C927.857 674.795 927.763 675.736 927.609 676.743C927.454 677.751 927.206 677.035 926.079 677.879Z" fill="black"/>
<path d="M834.055 621.839C834.646 620.303 836.149 622.78 836.243 624.395C836.337 626.01 836.786 626.173 835.646 627.333C834.505 628.492 833.633 626.866 832.794 625.075C831.955 623.284 833.136 624.237 834.055 621.839Z" fill="black"/>
<path d="M756.652 565.557C757.142 565.04 757.323 566.212 757.068 566.85C756.813 567.487 756.974 567.615 756.33 567.906C755.686 568.197 755.659 567.445 755.612 566.631C755.565 565.818 755.887 566.382 756.652 565.557Z" fill="black"/>
<path d="M607.757 645.303C608.214 644.01 609.529 646.049 609.643 647.391C609.757 648.733 610.133 648.866 609.207 649.856C608.281 650.845 607.529 649.498 606.778 648.035C606.026 646.571 607.046 647.324 607.757 645.303Z" fill="black"/>
</g>
<defs>
<clipPath id="clip0">
<rect width="1366" height="678" fill="white"/>
</clipPath>
</defs>
</svg>
