<svg width="128" height="136" viewBox="0 0 128 136" fill="none" xmlns="http://www.w3.org/2000/svg">
<mask id="mask0" mask-type="alpha" maskUnits="userSpaceOnUse" x="0" y="0" width="128" height="136">
<rect width="128" height="136" fill="#C4C4C4"/>
</mask>
<g mask="url(#mask0)">
<path d="M111.205 19.0198C110.158 16.5277 41.4266 83.0826 54.1195 112.572C54.8173 114.233 59.9178 109.249 59.9178 109.249C59.9178 109.249 59.519 115.048 61.2303 115.895C62.9415 116.742 65.9984 113.087 65.9984 113.087C65.9984 113.087 65.8157 118.985 67.6598 119.168C87.9785 121.294 118.232 35.5007 111.205 19.0198Z" fill="#EFFEE8" stroke="#E6E6E6" stroke-miterlimit="10"/>
<path d="M115.408 15.0823C112.284 12.4573 89.8224 120.53 111.221 133.356C111.221 133.356 113.48 135.017 114.826 129.269C114.826 129.269 116.205 133.472 118.016 133.937C118.016 133.937 119.345 134.452 121.638 129.884C121.638 129.884 122.601 133.622 124.479 131.811C126.356 130 148.835 43.1763 115.408 15.0823Z" fill="#EFFEE8" stroke="#E6E6E6" stroke-miterlimit="10"/>
<path d="M113.679 19.8505C113.148 17.3584 67.8418 100.029 86.117 128.172C86.117 128.172 87.9612 129.402 90.8686 125.431C90.8686 125.431 91.1676 130.631 93.6265 129.701C93.6265 129.701 97.132 128.787 98.0623 126.195C98.0623 126.195 98.5109 131.18 100.97 130.814C116.354 128.638 120.109 50.2039 113.679 19.8505Z" fill="#EFFEE8" stroke="#E6E6E6" stroke-miterlimit="10"/>
<path d="M121.338 16.7271C119.478 14.6504 138.235 114.632 161.876 119.45C161.876 119.45 163.538 119.915 163.222 114.682C163.222 114.682 165.963 117.756 167.841 117.357C167.841 117.357 169.186 116.975 168.837 112.373C168.837 112.373 171.329 114.898 172.775 114.366C174.22 113.835 187.129 90.9908 121.338 16.7271Z" fill="#EFFEE8" stroke="#E6E6E6" stroke-miterlimit="10"/>
<path d="M119.478 17.1092C117.551 13.7865 111.968 127.026 135.826 126.578C136.409 126.546 136.961 126.303 137.377 125.893C137.794 125.483 138.045 124.934 138.085 124.351C138.085 124.351 140.461 127.226 141.724 127.026C141.724 127.026 143.834 127.026 144.548 123.172C144.548 123.172 146.724 125.83 147.455 125.431C160.497 118.271 148.884 68.1468 119.478 17.1092Z" fill="#EFFEE8" stroke="#E6E6E6" stroke-miterlimit="10"/>
<path d="M122.169 15.8299C120.508 14.6171 160.846 116.011 183.906 106.724C183.906 106.724 185.235 105.893 184.488 102.321C184.488 102.321 188.741 103.983 189.572 103.368C190.402 102.753 189.572 98.7993 189.572 98.7993C189.572 98.7993 192.114 100.461 192.778 100.261C193.443 100.062 195.852 70.4561 122.169 15.8299Z" fill="#EFFEE8" stroke="#E6E6E6" stroke-miterlimit="10"/>
<path d="M124.329 13.7532C123.332 13.8363 179.37 83.7638 212.382 73.4466C214.259 72.8651 210.97 68.4624 210.97 68.4624C210.97 68.4624 215.489 69.1768 216.253 68.1966C217.017 67.2164 214.907 62.9467 214.907 62.9467C214.907 62.9467 219.144 63.7774 219.044 62.8304C216.469 38.8733 139.78 12.6401 124.329 13.7532Z" fill="#EFFEE8" stroke="#E6E6E6" stroke-miterlimit="10"/>
<path d="M121.206 19.2358C119.428 18.6709 176.795 96.8887 194.622 88.615C194.622 88.615 195.419 88.3991 195.27 85.176C195.27 85.176 199.407 85.9568 199.888 85.5581C200.233 84.8916 200.438 84.1622 200.492 83.414C200.546 82.6659 200.448 81.9145 200.204 81.2053C200.204 81.2053 202.48 82.1523 203.045 81.4545C204.108 80.142 201.085 68.1635 191.199 59.4578C178.639 48.3764 136.158 23.9707 121.206 19.2358Z" fill="#EFFEE8" stroke="#E6E6E6" stroke-miterlimit="10"/>
<path d="M125.575 6.37667C123.914 7.75562 209.907 25.0672 229.926 3.05391C231.073 1.79126 226.753 1.04364 226.753 1.04364C226.753 1.04364 231.737 -2.06313 230.907 -3.01011C229.83 -3.86077 228.624 -4.53382 227.335 -5.00378C227.335 -5.00378 229.976 -7.71182 229.494 -8.17701C215.506 -22.0828 143.883 -9.38982 125.575 6.37667Z" fill="#EFFEE8" stroke="#E6E6E6" stroke-miterlimit="10"/>
<path d="M125.094 10.0982C122.485 10.58 226.006 37.6106 226.72 25.6985C226.72 24.5854 224.76 23.8378 223.829 22.7081C223.829 22.7081 227.734 21.2793 227.85 20.2824C227.966 19.2856 227.285 18.4217 225.291 16.8268C225.291 16.8268 229.079 15.7303 228.515 14.9328C218.33 0.678155 185.418 -0.866922 125.094 10.0982Z" fill="#EFFEE8" stroke="#E6E6E6" stroke-miterlimit="10"/>
<path d="M123.881 13.72C120.923 13.6203 203.627 66.0369 222.533 48.0773C223.497 47.1802 220.373 45.1533 220.373 45.1533C220.373 45.1533 225.025 44.1066 225.059 43.0101C225.092 41.9136 221.736 38.6407 221.736 38.6407C221.736 38.6407 226.022 38.973 225.806 38.1423C221.088 20.6812 183.906 15.8133 123.881 13.72Z" fill="#EFFEE8" stroke="#E6E6E6" stroke-miterlimit="10"/>
<path d="M119.843 3.28652C119.129 5.72875 202.746 -31.9846 207.897 -59.2977C208.063 -60.1948 206.634 -60.3776 203.826 -60.2613C203.826 -60.2613 205.089 -64.3981 204.341 -65.0294C203.594 -65.6608 199.872 -65.0294 199.872 -65.0294C199.872 -65.0294 200.836 -69.5152 199.174 -70.0136C179.337 -76.1607 127.104 -21.4847 119.843 3.28652Z" fill="#EFFEE8" stroke="#E6E6E6" stroke-miterlimit="10"/>
<path d="M125.99 0.19635C122.468 3.05392 224.294 -18.76 216.968 -41.0723C216.685 -41.9196 214.907 -41.2219 214.725 -41.6538C214.725 -41.6538 216.536 -45.4916 215.456 -46.3223C214.376 -47.153 212.382 -46.5383 211.95 -46.7376C211.95 -46.7376 213.213 -49.5786 212.249 -50.2432C195.768 -61.5239 154.55 -22.7972 125.99 0.19635Z" fill="#EFFEE8" stroke="#E6E6E6" stroke-miterlimit="10"/>
<path d="M116.272 4.49934C117.102 6.27701 160.498 -95.6155 133.102 -105.467C131.191 -106.165 129.779 -101.098 129.779 -101.098C129.779 -101.098 127.652 -106.813 126.306 -106.996C124.961 -107.179 121.472 -101.181 121.472 -101.181C121.472 -101.181 119.81 -105.567 119.246 -105.6C106.337 -106.248 95.7703 -38.6966 116.272 4.49934Z" fill="#EFFEE8" stroke="#E6E6E6" stroke-miterlimit="10"/>
<path d="M118.382 2.5555C117.351 5.16386 199.274 -46.8373 187.246 -79.5333C186.332 -82.0254 183.807 -79.3007 183.807 -79.3007C183.807 -79.3007 185.152 -86.3948 179.404 -82.6235C179.404 -82.6235 179.52 -85.4977 178.058 -85.8299C161.129 -89.9169 129.513 -25.2228 118.382 2.5555Z" fill="#EFFEE8" stroke="#E6E6E6" stroke-miterlimit="10"/>
<path d="M112.7 4.13381C114.594 5.26355 91.3508 -100.782 66.1809 -100.782C65.0844 -100.782 65.8486 -97.1439 65.8486 -97.1439C65.8486 -97.1439 61.4127 -100.234 60.8645 -99.1542C60.4912 -97.3577 60.3792 -95.5167 60.5322 -93.6883C60.5322 -93.6883 57.4587 -96.3963 56.4618 -95.5158C49.185 -89.0032 78.2591 -16.4341 112.7 4.13381Z" fill="#EFFEE8" stroke="#E6E6E6" stroke-miterlimit="10"/>
<path d="M122.868 1.70822C118.93 4.2169 226.82 2.38939 226.82 -20.953C226.82 -22.2655 223.614 -22.6144 223.614 -22.6144C223.614 -22.6144 227.435 -26.4356 226.123 -27.4324C225.427 -28.0206 224.613 -28.4526 223.736 -28.6991C222.859 -28.9456 221.939 -29.0008 221.039 -28.8612C221.039 -28.8612 225.591 -31.5194 221.271 -34.2939C209.309 -42.0193 155.73 -19.2418 122.868 1.70822Z" fill="#EFFEE8" stroke="#E6E6E6" stroke-miterlimit="10"/>
<path d="M111.536 1.99061C113.945 5.19707 128.964 -91.7279 97.3148 -106.547C96.4177 -106.963 95.4374 -103.69 95.4374 -103.69C95.4374 -103.69 92.9121 -105.933 92.447 -104.952C91.6293 -103.333 90.9027 -101.669 90.2705 -99.9683C90.2705 -99.9683 88.6092 -103.59 86.2002 -102.327C72.6765 -95.1835 96.5506 -18.0955 111.536 1.99061Z" fill="#EFFEE8" stroke="#E6E6E6" stroke-miterlimit="10"/>
<path d="M108.513 6.37666C111.371 6.60925 55.7807 -64.016 31.8236 -65.6275C24.1647 -66.1592 25.959 -60.4773 25.959 -60.4773C25.959 -60.4773 20.2106 -62.1387 19.3134 -60.8926C18.4163 -59.6466 19.6457 -55.9085 20.7755 -52.8183C20.7755 -52.8183 16.8546 -55.4101 16.3728 -53.4829C11.5548 -33.7124 75.7007 3.68523 108.513 6.37666Z" fill="#EFFEE8" stroke="#E6E6E6" stroke-miterlimit="10"/>
<path d="M110.307 2.83794C112.417 3.70186 63.6389 -96.8449 43.1208 -85.4312C42.1572 -84.8996 44.1343 -80.8292 42.3732 -80.8126C42.3732 -80.8126 37.3891 -83.936 36.7744 -82.4739C36.1597 -81.0119 37.007 -79.1512 36.359 -77.7556C35.4203 -77.8992 34.4633 -77.871 33.5347 -77.6726C32.6375 -77.3237 32.5212 -74.9147 31.6407 -72.2565C27.969 -60.9591 83.9077 -7.96104 110.307 2.83794Z" fill="#EFFEE8" stroke="#E6E6E6" stroke-miterlimit="10"/>
<path d="M109.377 9.48348C111.321 9.23428 27.6372 -63.3016 9.86045 -40.2416C8.61442 -38.5803 13.0171 -35.7559 13.0171 -35.7559C13.0171 -35.7559 6.96965 -35.4569 6.37155 -34.2274C5.77345 -32.998 10.4253 -27.8477 10.4253 -27.8477C10.4253 -27.8477 5.75684 -27.665 5.54086 -27.0835C0.938838 -14.9222 61.9281 15.8133 109.377 9.48348Z" fill="#EFFEE8" stroke="#E6E6E6" stroke-miterlimit="10"/>
<path d="M108.596 6.90833C110.689 5.03097 14.3292 -4.52196 2.11809 22.4422C1.1711 24.519 6.15524 26.1803 8.66392 25.9145C8.66392 25.9145 3.8127 29.6692 4.11174 30.8987C4.41079 32.1281 8.68054 33.5403 8.68054 33.5403C8.68054 33.5403 4.70984 36.4643 5.27471 37.0458C18.5325 50.6192 92.547 21.2627 108.596 6.90833Z" fill="#EFFEE8" stroke="#E6E6E6" stroke-miterlimit="10"/>
<path d="M103.562 12.0254C106.137 11.5269 20.0608 -32.3169 5.85598 -8.97449C4.85915 -7.31311 8.31483 -5.8677 8.31483 -5.8677C8.31483 -5.8677 4.14476 -4.02357 4.04508 -3.2095C3.9454 -2.39542 4.41058 -0.833728 7.2017 1.40914C7.2017 1.40914 3.7128 2.18999 3.77926 2.921C5.57355 22.193 66.5961 19.1693 103.562 12.0254Z" fill="#EFFEE8" stroke="#E6E6E6" stroke-miterlimit="10"/>
<path d="M107.035 17.0427C105.772 15.1321 15.1104 56.6999 19.1143 83.2986C19.3303 84.6443 20.4102 85.7076 24.5802 83.797C24.5802 83.797 22.2709 88.2993 24.1649 89.0469C26.0589 89.7946 29.7305 88.6981 29.7305 88.6981C29.7305 88.6981 27.5707 92.1205 29.0992 92.8349C46.4274 100.976 105.656 35.0023 107.599 17.0427H107.035Z" fill="#EFFEE8" stroke="#E6E6E6" stroke-miterlimit="10"/>
<path d="M108.064 18.538C107.898 16.6938 29.3481 66.4356 38.8679 89.4955C39.5158 91.1569 43.1376 89.8278 43.1376 89.8278C43.1376 89.8278 40.3465 94.4796 41.7254 96.6228C42.1574 97.2708 44.0846 97.8855 46.5767 96.1244C46.5767 96.1244 45.6131 99.9456 46.5767 100.344C63.9879 107.322 109.377 32.9421 108.064 18.538Z" fill="#EFFEE8" stroke="#E6E6E6" stroke-miterlimit="10"/>
<path d="M104.957 12.4407C106.054 11.1448 5.98906 29.1708 11.2058 57.8296C11.6544 60.3549 16.3062 58.7766 16.3062 58.7766C16.3062 58.7766 13.0665 63.3454 14.0468 64.0598C15.5347 64.6316 17.1059 64.9571 18.6986 65.0234C18.6986 65.0234 16.1235 67.9142 17.2864 68.7117C36.276 81.4711 93.0288 27.1273 104.957 12.4407Z" fill="#EFFEE8" stroke="#E6E6E6" stroke-miterlimit="10"/>
<path d="M142.87 12.3411C142.87 16.4945 139.315 18.1227 138.268 22.7745C137.105 27.8584 135.477 28.0411 133.284 28.2737C128.482 28.7887 128.549 32.6764 126.439 34.0885C123.714 35.9327 119.245 32.1447 116.653 32.1447C114.842 32.1447 114.311 37.2618 111.569 37.511C108.828 37.7602 112.766 33.8892 102.349 32.2444C100.139 31.8955 99.8401 27.4596 97.9628 24.7848C96.7167 23.0071 93.394 23.3726 93.2943 21.3125C93.1946 19.2524 91.3505 17.1591 92.663 14.667C93.9755 12.1749 94.5071 7.87196 93.8093 7.30709C91.4668 5.42973 92.9952 2.1568 93.2943 -1.86374C93.5601 -5.46893 97.7468 -5.30279 100.305 -7.49582C102.581 -9.38979 103.263 -13.7426 105.289 -14.5899C106.419 -15.0883 109.244 -12.563 111.702 -13.2442C114.427 -14.0084 115.607 -19.8897 118.348 -17.9625C119.478 -17.1817 120.657 -11.8652 132.071 -15.919C134.779 -16.8826 134.264 -12.7125 135.925 -9.72206C137.221 -7.41274 141.009 -6.3993 141.175 -5.2031C141.441 -3.25929 142.471 0.794468 144.847 2.87119C147.588 5.39649 142.87 10.4637 142.87 12.3411Z" fill="#EFFEE8" stroke="#E6E6E6" stroke-width="0.75" stroke-miterlimit="10"/>
<path d="M139.281 11.9424C139.281 15.4645 136.274 16.9265 135.377 20.7975C134.397 25.1171 133.001 25.2666 131.124 25.466C127.054 25.898 127.103 29.2207 125.326 30.4501C122.983 32.0118 119.195 28.7888 117.019 28.7888C115.49 28.7888 115.025 33.125 112.699 33.3409C110.373 33.5569 113.729 30.2508 104.858 28.8718C102.93 28.5562 102.731 24.7848 101.07 22.4921C100.006 20.9969 97.182 21.2959 97.1156 19.5515C97.0491 17.807 95.4542 16.0294 96.5673 13.936C97.6804 11.8427 98.2287 8.17102 97.5475 7.68922C95.5539 6.02784 96.8497 3.28657 97.1156 -0.119265C97.3315 -3.14298 100.837 -3.05991 103.08 -4.93727C105.007 -6.59865 105.589 -10.2371 107.267 -10.9681C108.214 -11.3834 110.589 -9.3067 112.699 -9.82173C114.809 -10.3368 116.022 -15.4372 118.298 -13.7758C119.262 -13.1113 120.275 -8.59231 129.928 -12.1144C132.237 -12.9285 131.789 -9.37316 133.251 -6.84786C134.347 -4.87082 137.57 -4.04012 137.703 -3.01006C137.993 -0.450402 139.087 1.95158 140.826 3.85143C143.285 6.02784 139.281 10.3308 139.281 11.9424Z" fill="#EFFEE8" stroke="#E6E6E6" stroke-width="0.75" stroke-miterlimit="10"/>
<path d="M109.509 8.91862C111.28 8.91862 112.716 7.48304 112.716 5.71216C112.716 3.94128 111.28 2.50571 109.509 2.50571C107.738 2.50571 106.303 3.94128 106.303 5.71216C106.303 7.48304 107.738 8.91862 109.509 8.91862Z" fill="#EFFEE8" stroke="#E6E6E6" stroke-width="0.75" stroke-miterlimit="10"/>
<path d="M110.489 2.25649C112.03 2.25649 113.28 1.00687 113.28 -0.534625C113.28 -2.07612 112.03 -3.32574 110.489 -3.32574C108.947 -3.32574 107.698 -2.07612 107.698 -0.534625C107.698 1.00687 108.947 2.25649 110.489 2.25649Z" fill="#EFFEE8" stroke="#E6E6E6" stroke-width="0.75" stroke-miterlimit="10"/>
<path d="M110.904 -0.235571C112.445 -0.235571 113.695 -1.4852 113.695 -3.02669C113.695 -4.56818 112.445 -5.81781 110.904 -5.81781C109.362 -5.81781 108.113 -4.56818 108.113 -3.02669C108.113 -1.4852 109.362 -0.235571 110.904 -0.235571Z" fill="#EFFEE8" stroke="#E6E6E6" stroke-width="0.75" stroke-miterlimit="10"/>
<path d="M122.318 8.96847C124.043 8.96847 125.441 7.57007 125.441 5.84507C125.441 4.12007 124.043 2.72168 122.318 2.72168C120.593 2.72168 119.194 4.12007 119.194 5.84507C119.194 7.57007 120.593 8.96847 122.318 8.96847Z" fill="#EFFEE8" stroke="#E6E6E6" stroke-width="0.75" stroke-miterlimit="10"/>
<path d="M127.385 6.19396C128.927 6.19396 130.176 4.94434 130.176 3.40284C130.176 1.86135 128.927 0.611725 127.385 0.611725C125.844 0.611725 124.594 1.86135 124.594 3.40284C124.594 4.94434 125.844 6.19396 127.385 6.19396Z" fill="#EFFEE8" stroke="#E6E6E6" stroke-width="0.75" stroke-miterlimit="10"/>
<path d="M112.599 10.9621C114.287 10.9621 115.656 9.5935 115.656 7.9052C115.656 6.2169 114.287 4.84825 112.599 4.84825C110.91 4.84825 109.542 6.2169 109.542 7.9052C109.542 9.5935 110.91 10.9621 112.599 10.9621Z" fill="#EFFEE8" stroke="#E6E6E6" stroke-width="0.75" stroke-miterlimit="10"/>
<path d="M108.811 13.6037C110.554 13.6037 111.967 12.1905 111.967 10.4471C111.967 8.70375 110.554 7.29048 108.811 7.29048C107.067 7.29048 105.654 8.70375 105.654 10.4471C105.654 12.1905 107.067 13.6037 108.811 13.6037Z" fill="#EFFEE8" stroke="#E6E6E6" stroke-width="0.75" stroke-miterlimit="10"/>
<path d="M120.723 1.12676C122.466 1.12676 123.879 -0.286513 123.879 -2.02987C123.879 -3.77322 122.466 -5.18649 120.723 -5.18649C118.979 -5.18649 117.566 -3.77322 117.566 -2.02987C117.566 -0.286513 118.979 1.12676 120.723 1.12676Z" fill="#EFFEE8" stroke="#E6E6E6" stroke-width="0.75" stroke-miterlimit="10"/>
<path d="M128.88 16.86C130.89 16.86 132.519 15.231 132.519 13.2216C132.519 11.2121 130.89 9.58316 128.88 9.58316C126.871 9.58316 125.242 11.2121 125.242 13.2216C125.242 15.231 126.871 16.86 128.88 16.86Z" fill="#EFFEE8" stroke="#E6E6E6" stroke-width="0.75" stroke-miterlimit="10"/>
<path d="M124.228 4.4329C125.971 4.4329 127.385 3.01963 127.385 1.27628C127.385 -0.467076 125.971 -1.88034 124.228 -1.88034C122.485 -1.88034 121.071 -0.467076 121.071 1.27628C121.071 3.01963 122.485 4.4329 124.228 4.4329Z" fill="#EFFEE8" stroke="#E6E6E6" stroke-width="0.75" stroke-miterlimit="10"/>
<path d="M122.982 16.0792C124.725 16.0792 126.139 14.6659 126.139 12.9225C126.139 11.1792 124.725 9.76591 122.982 9.76591C121.239 9.76591 119.825 11.1792 119.825 12.9225C119.825 14.6659 121.239 16.0792 122.982 16.0792Z" fill="#EFFEE8" stroke="#E6E6E6" stroke-width="0.75" stroke-miterlimit="10"/>
<path d="M107.1 19.7674C108.843 19.7674 110.257 18.3542 110.257 16.6108C110.257 14.8674 108.843 13.4542 107.1 13.4542C105.357 13.4542 103.943 14.8674 103.943 16.6108C103.943 18.3542 105.357 19.7674 107.1 19.7674Z" fill="#EFFEE8" stroke="#E6E6E6" stroke-width="0.75" stroke-miterlimit="10"/>
<path d="M104.242 15.4977C105.985 15.4977 107.399 14.0844 107.399 12.3411C107.399 10.5977 105.985 9.18445 104.242 9.18445C102.499 9.18445 101.085 10.5977 101.085 12.3411C101.085 14.0844 102.499 15.4977 104.242 15.4977Z" fill="#EFFEE8" stroke="#E6E6E6" stroke-width="0.75" stroke-miterlimit="10"/>
<path d="M105.006 10.4471C106.75 10.4471 108.163 9.03381 108.163 7.29046C108.163 5.54711 106.75 4.13383 105.006 4.13383C103.263 4.13383 101.85 5.54711 101.85 7.29046C101.85 9.03381 103.263 10.4471 105.006 10.4471Z" fill="#EFFEE8" stroke="#E6E6E6" stroke-width="0.75" stroke-miterlimit="10"/>
<path d="M105.455 6.06105C107.198 6.06105 108.611 4.64778 108.611 2.90443C108.611 1.16107 107.198 -0.252197 105.455 -0.252197C103.711 -0.252197 102.298 1.16107 102.298 2.90443C102.298 4.64778 103.711 6.06105 105.455 6.06105Z" fill="#EFFEE8" stroke="#E6E6E6" stroke-width="0.75" stroke-miterlimit="10"/>
<path d="M109.442 6.06105C111.185 6.06105 112.599 4.64778 112.599 2.90443C112.599 1.16107 111.185 -0.252197 109.442 -0.252197C107.699 -0.252197 106.285 1.16107 106.285 2.90443C106.285 4.64778 107.699 6.06105 109.442 6.06105Z" fill="#EFFEE8" stroke="#E6E6E6" stroke-width="0.75" stroke-miterlimit="10"/>
<path d="M106.983 2.23988C108.727 2.23988 110.14 0.826609 110.14 -0.916745C110.14 -2.6601 108.727 -4.07336 106.983 -4.07336C105.24 -4.07336 103.827 -2.6601 103.827 -0.916745C103.827 0.826609 105.24 2.23988 106.983 2.23988Z" fill="#EFFEE8" stroke="#E6E6E6" stroke-width="0.75" stroke-miterlimit="10"/>
<path d="M112.25 19.2358C113.993 19.2358 115.406 17.8226 115.406 16.0792C115.406 14.3358 113.993 12.9226 112.25 12.9226C110.506 12.9226 109.093 14.3358 109.093 16.0792C109.093 17.8226 110.506 19.2358 112.25 19.2358Z" fill="#EFFEE8" stroke="#E6E6E6" stroke-width="0.75" stroke-miterlimit="10"/>
<path d="M110.124 16.7438C111.867 16.7438 113.28 15.3305 113.28 13.5871C113.28 11.8438 111.867 10.4305 110.124 10.4305C108.38 10.4305 106.967 11.8438 106.967 13.5871C106.967 15.3305 108.38 16.7438 110.124 16.7438Z" fill="#EFFEE8" stroke="#E6E6E6" stroke-width="0.75" stroke-miterlimit="10"/>
<path d="M117.051 18.6543C118.795 18.6543 120.208 17.241 120.208 15.4977C120.208 13.7543 118.795 12.341 117.051 12.341C115.308 12.341 113.895 13.7543 113.895 15.4977C113.895 17.241 115.308 18.6543 117.051 18.6543Z" fill="#EFFEE8" stroke="#E6E6E6" stroke-width="0.75" stroke-miterlimit="10"/>
<path d="M122.617 24.4359C124.36 24.4359 125.774 23.0226 125.774 21.2793C125.774 19.5359 124.36 18.1227 122.617 18.1227C120.874 18.1227 119.46 19.5359 119.46 21.2793C119.46 23.0226 120.874 24.4359 122.617 24.4359Z" fill="#EFFEE8" stroke="#E6E6E6" stroke-width="0.75" stroke-miterlimit="10"/>
<path d="M128.415 1.79131C130.158 1.79131 131.571 0.378038 131.571 -1.36532C131.571 -3.10867 130.158 -4.52194 128.415 -4.52194C126.671 -4.52194 125.258 -3.10867 125.258 -1.36532C125.258 0.378038 126.671 1.79131 128.415 1.79131Z" fill="#EFFEE8" stroke="#E6E6E6" stroke-width="0.75" stroke-miterlimit="10"/>
<path d="M124.86 21.2959C126.603 21.2959 128.017 19.8826 128.017 18.1393C128.017 16.3959 126.603 14.9827 124.86 14.9827C123.117 14.9827 121.703 16.3959 121.703 18.1393C121.703 19.8826 123.117 21.2959 124.86 21.2959Z" fill="#EFFEE8" stroke="#E6E6E6" stroke-width="0.75" stroke-miterlimit="10"/>
<path d="M118.098 26.0309C120.135 26.0309 121.786 24.3796 121.786 22.3426C121.786 20.3056 120.135 18.6543 118.098 18.6543C116.061 18.6543 114.41 20.3056 114.41 22.3426C114.41 24.3796 116.061 26.0309 118.098 26.0309Z" fill="#EFFEE8" stroke="#E6E6E6" stroke-width="0.75" stroke-miterlimit="10"/>
<path d="M115.856 1.49224C117.599 1.49224 119.012 0.0789657 119.012 -1.66439C119.012 -3.40774 117.599 -4.82101 115.856 -4.82101C114.112 -4.82101 112.699 -3.40774 112.699 -1.66439C112.699 0.0789657 114.112 1.49224 115.856 1.49224Z" fill="#EFFEE8" stroke="#E6E6E6" stroke-width="0.75" stroke-miterlimit="10"/>
<path d="M113.629 23.3228C115.372 23.3228 116.785 21.9095 116.785 20.1662C116.785 18.4228 115.372 17.0096 113.629 17.0096C111.885 17.0096 110.472 18.4228 110.472 20.1662C110.472 21.9095 111.885 23.3228 113.629 23.3228Z" fill="#EFFEE8" stroke="#E6E6E6" stroke-width="0.75" stroke-miterlimit="10"/>
<path d="M109.093 23.6717C110.836 23.6717 112.25 22.2584 112.25 20.5151C112.25 18.7717 110.836 17.3584 109.093 17.3584C107.35 17.3584 105.937 18.7717 105.937 20.5151C105.937 22.2584 107.35 23.6717 109.093 23.6717Z" fill="#EFFEE8" stroke="#E6E6E6" stroke-width="0.75" stroke-miterlimit="10"/>
<path d="M129.512 20.0166C131.255 20.0166 132.668 18.6034 132.668 16.86C132.668 15.1167 131.255 13.7034 129.512 13.7034C127.768 13.7034 126.355 15.1167 126.355 16.86C126.355 18.6034 127.768 20.0166 129.512 20.0166Z" fill="#EFFEE8" stroke="#E6E6E6" stroke-width="0.75" stroke-miterlimit="10"/>
<path d="M121.72 13.2216C123.463 13.2216 124.876 11.8083 124.876 10.065C124.876 8.32161 123.463 6.90834 121.72 6.90834C119.976 6.90834 118.563 8.32161 118.563 10.065C118.563 11.8083 119.976 13.2216 121.72 13.2216Z" fill="#EFFEE8" stroke="#E6E6E6" stroke-width="0.75" stroke-miterlimit="10"/>
<path d="M124.228 0.129931C125.971 0.129931 127.385 -1.28334 127.385 -3.02669C127.385 -4.77005 125.971 -6.18332 124.228 -6.18332C122.485 -6.18332 121.071 -4.77005 121.071 -3.02669C121.071 -1.28334 122.485 0.129931 124.228 0.129931Z" fill="#EFFEE8" stroke="#E6E6E6" stroke-width="0.75" stroke-miterlimit="10"/>
<path d="M126.355 12.0088C128.098 12.0088 129.512 10.5955 129.512 8.85217C129.512 7.10881 128.098 5.69554 126.355 5.69554C124.612 5.69554 123.198 7.10881 123.198 8.85217C123.198 10.5955 124.612 12.0088 126.355 12.0088Z" fill="#EFFEE8" stroke="#E6E6E6" stroke-width="0.75" stroke-miterlimit="10"/>
<path d="M112.599 26.8117C114.342 26.8117 115.755 25.3984 115.755 23.6551C115.755 21.9117 114.342 20.4984 112.599 20.4984C110.855 20.4984 109.442 21.9117 109.442 23.6551C109.442 25.3984 110.855 26.8117 112.599 26.8117Z" fill="#EFFEE8" stroke="#E6E6E6" stroke-width="0.75" stroke-miterlimit="10"/>
<path d="M113.912 5.74542C115.398 5.74542 116.603 4.54042 116.603 3.05398C116.603 1.56754 115.398 0.362549 113.912 0.362549C112.425 0.362549 111.22 1.56754 111.22 3.05398C111.22 4.54042 112.425 5.74542 113.912 5.74542Z" fill="#EFFEE8" stroke="#E6E6E6" stroke-width="0.75" stroke-miterlimit="10"/>
<path d="M119.029 4.84823C120.515 4.84823 121.72 3.64323 121.72 2.15679C121.72 0.670351 120.515 -0.534637 119.029 -0.534637C117.542 -0.534637 116.337 0.670351 116.337 2.15679C116.337 3.64323 117.542 4.84823 119.029 4.84823Z" fill="#EFFEE8" stroke="#E6E6E6" stroke-width="0.75" stroke-miterlimit="10"/>
<path d="M117.317 9.74932C118.913 9.74932 120.208 8.45507 120.208 6.85853C120.208 5.26198 118.913 3.96773 117.317 3.96773C115.72 3.96773 114.426 5.26198 114.426 6.85853C114.426 8.45507 115.72 9.74932 117.317 9.74932Z" fill="#EFFEE8" stroke="#E6E6E6" stroke-width="0.75" stroke-miterlimit="10"/>
<path d="M131.19 16.6108C132.933 16.6108 134.347 15.1975 134.347 13.4542C134.347 11.7108 132.933 10.2976 131.19 10.2976C129.447 10.2976 128.033 11.7108 128.033 13.4542C128.033 15.1975 129.447 16.6108 131.19 16.6108Z" fill="#EFFEE8" stroke="#E6E6E6" stroke-width="0.75" stroke-miterlimit="10"/>
<path d="M113.912 16.5942C115.572 16.5942 116.919 15.2479 116.919 13.5871C116.919 11.9263 115.572 10.58 113.912 10.58C112.251 10.58 110.905 11.9263 110.905 13.5871C110.905 15.2479 112.251 16.5942 113.912 16.5942Z" fill="#EFFEE8" stroke="#E6E6E6" stroke-width="0.75" stroke-miterlimit="10"/>
<path d="M118.281 14.9827C119.942 14.9827 121.288 13.6363 121.288 11.9756C121.288 10.3148 119.942 8.96848 118.281 8.96848C116.62 8.96848 115.274 10.3148 115.274 11.9756C115.274 13.6363 116.62 14.9827 118.281 14.9827Z" fill="#EFFEE8" stroke="#E6E6E6" stroke-width="0.75" stroke-miterlimit="10"/>
<path d="M119.61 20.5151C121.27 20.5151 122.617 19.1687 122.617 17.508C122.617 15.8472 121.27 14.5009 119.61 14.5009C117.949 14.5009 116.603 15.8472 116.603 17.508C116.603 19.1687 117.949 20.5151 119.61 20.5151Z" fill="#EFFEE8" stroke="#E6E6E6" stroke-width="0.75" stroke-miterlimit="10"/>
</g>
</svg>
