<svg width="216" height="182" viewBox="0 0 216 182" fill="none" xmlns="http://www.w3.org/2000/svg">
<mask id="mask0" mask-type="alpha" maskUnits="userSpaceOnUse" x="0" y="0" width="216" height="182">
<rect width="216" height="182" fill="black"/>
</mask>
<g mask="url(#mask0)">
<path d="M103.098 118.665C102.129 116.358 38.4998 177.972 50.2505 205.272C50.8965 206.81 55.6183 202.196 55.6183 202.196C55.6183 202.196 55.2491 207.564 56.8333 208.348C58.4175 209.132 61.2475 205.749 61.2475 205.749C61.2475 205.749 61.0783 211.209 62.7856 211.378C81.5959 213.347 109.604 133.922 103.098 118.665Z" fill="#EFFEE8" stroke="#E6E6E6" stroke-width="1.1" stroke-miterlimit="10"/>
<path d="M106.989 115.019C104.097 112.589 83.3028 212.639 103.113 224.513C103.113 224.513 105.205 226.051 106.45 220.729C106.45 220.729 107.727 224.621 109.403 225.051C109.403 225.051 110.634 225.528 112.756 221.298C112.756 221.298 113.648 224.759 115.386 223.083C117.124 221.406 137.934 141.028 106.989 115.019Z" fill="#EFFEE8" stroke="#E6E6E6" stroke-width="1.1" stroke-miterlimit="10"/>
<path d="M105.389 119.434C104.897 117.127 62.9541 193.66 79.8726 219.714C79.8726 219.714 81.5798 220.852 84.2714 217.176C84.2714 217.176 84.5482 221.991 86.8245 221.129C86.8245 221.129 90.0698 220.283 90.9311 217.884C90.9311 217.884 91.3464 222.498 93.6227 222.16C107.865 220.145 111.341 147.534 105.389 119.434Z" fill="#EFFEE8" stroke="#E6E6E6" stroke-width="1.1" stroke-miterlimit="10"/>
<path d="M112.479 116.542C110.757 114.62 128.121 207.179 150.008 211.64C150.008 211.64 151.546 212.07 151.253 207.225C151.253 207.225 153.791 210.071 155.529 209.702C155.529 209.702 156.775 209.348 156.452 205.087C156.452 205.087 158.759 207.425 160.097 206.933C161.435 206.441 173.386 185.293 112.479 116.542Z" fill="#EFFEE8" stroke="#E6E6E6" stroke-width="1.1" stroke-miterlimit="10"/>
<path d="M110.757 116.896C108.973 113.82 103.805 218.653 125.891 218.238C126.431 218.209 126.942 217.983 127.328 217.604C127.713 217.224 127.946 216.716 127.983 216.177C127.983 216.177 130.182 218.838 131.351 218.653C131.351 218.653 133.304 218.653 133.966 215.085C133.966 215.085 135.981 217.546 136.657 217.176C148.731 210.548 137.98 164.145 110.757 116.896Z" fill="#EFFEE8" stroke="#E6E6E6" stroke-width="1.1" stroke-miterlimit="10"/>
<path d="M113.249 115.712C111.711 114.589 149.054 208.456 170.402 199.858C170.402 199.858 171.633 199.089 170.941 195.782C170.941 195.782 174.878 197.32 175.647 196.751C176.416 196.182 175.647 192.522 175.647 192.522C175.647 192.522 178 194.06 178.616 193.875C179.231 193.691 181.461 166.283 113.249 115.712Z" fill="#EFFEE8" stroke="#E6E6E6" stroke-width="1.1" stroke-miterlimit="10"/>
<path d="M115.248 113.789C114.325 113.866 166.203 178.602 196.764 169.051C198.502 168.513 195.457 164.437 195.457 164.437C195.457 164.437 199.64 165.098 200.348 164.191C201.055 163.283 199.102 159.331 199.102 159.331C199.102 159.331 203.024 160.1 202.932 159.223C200.548 137.044 129.552 112.758 115.248 113.789Z" fill="#EFFEE8" stroke="#E6E6E6" stroke-width="1.1" stroke-miterlimit="10"/>
<path d="M112.356 118.865C110.71 118.342 163.819 190.753 180.322 183.093C180.322 183.093 181.061 182.893 180.922 179.91C180.922 179.91 184.752 180.633 185.198 180.263C185.517 179.646 185.707 178.971 185.757 178.278C185.807 177.586 185.716 176.89 185.49 176.234C185.49 176.234 187.597 177.11 188.12 176.464C189.105 175.249 186.305 164.16 177.154 156.101C165.526 145.842 126.199 123.248 112.356 118.865Z" fill="#EFFEE8" stroke="#E6E6E6" stroke-width="1.1" stroke-miterlimit="10"/>
<path d="M116.401 106.96C114.863 108.237 194.473 124.263 213.006 103.884C214.067 102.715 210.068 102.023 210.068 102.023C210.068 102.023 214.683 99.1468 213.914 98.2701C212.917 97.4826 211.8 96.8595 210.607 96.4245C210.607 96.4245 213.052 93.9174 212.606 93.4868C199.656 80.6133 133.351 92.364 116.401 106.96Z" fill="#EFFEE8" stroke="#E6E6E6" stroke-width="1.1" stroke-miterlimit="10"/>
<path d="M115.956 110.405C113.541 110.851 209.377 135.875 210.038 124.848C210.038 123.817 208.223 123.125 207.362 122.079C207.362 122.079 210.976 120.756 211.084 119.834C211.191 118.911 210.561 118.111 208.715 116.634C208.715 116.634 212.222 115.619 211.699 114.881C202.271 101.685 171.802 100.254 115.956 110.405Z" fill="#EFFEE8" stroke="#E6E6E6" stroke-width="1.1" stroke-miterlimit="10"/>
<path d="M114.833 113.758C112.095 113.666 188.659 162.191 206.162 145.565C207.054 144.735 204.162 142.858 204.162 142.858C204.162 142.858 208.469 141.889 208.5 140.874C208.531 139.859 205.424 136.829 205.424 136.829C205.424 136.829 209.392 137.137 209.192 136.368C204.824 120.203 170.402 115.696 114.833 113.758Z" fill="#EFFEE8" stroke="#E6E6E6" stroke-width="1.1" stroke-miterlimit="10"/>
<path d="M111.095 104.099C110.434 106.36 187.844 71.4466 192.612 46.1611C192.766 45.3306 191.443 45.1614 188.844 45.269C188.844 45.269 190.012 41.4393 189.32 40.8549C188.628 40.2704 185.183 40.8549 185.183 40.8549C185.183 40.8549 186.075 36.7021 184.537 36.2407C166.173 30.5499 117.817 81.167 111.095 104.099Z" fill="#EFFEE8" stroke="#E6E6E6" stroke-width="1.1" stroke-miterlimit="10"/>
<path d="M116.786 101.239C113.525 103.884 207.792 83.6894 201.009 63.0335C200.748 62.2491 199.102 62.895 198.933 62.4952C198.933 62.4952 200.609 58.9423 199.61 58.1732C198.61 57.4042 196.764 57.9733 196.364 57.7887C196.364 57.7887 197.533 55.1587 196.641 54.5435C181.384 44.1001 143.225 79.952 116.786 101.239Z" fill="#EFFEE8" stroke="#E6E6E6" stroke-width="1.1" stroke-miterlimit="10"/>
<path d="M107.789 105.222C108.558 106.868 148.731 12.5394 123.369 3.41879C121.6 2.77281 120.293 7.46385 120.293 7.46385C120.293 7.46385 118.324 2.17297 117.078 2.00379C115.833 1.8346 112.603 7.38695 112.603 7.38695C112.603 7.38695 111.065 3.32651 110.542 3.29575C98.5912 2.69591 88.8092 65.2329 107.789 105.222Z" fill="#EFFEE8" stroke="#E6E6E6" stroke-width="1.1" stroke-miterlimit="10"/>
<path d="M110.526 96.3014C109.526 100.393 172.156 27.0893 154.268 14.785C153.576 14.3082 152.73 15.8154 152.284 15.6001C152.284 15.6001 151.469 11.7704 150.208 11.7704C148.946 11.7704 147.824 13.3084 147.393 13.4161C147.393 13.4161 146.732 10.6322 145.64 10.6938C127.152 11.7242 118.616 63.3411 110.526 96.3014Z" fill="#EFFEE8" stroke="#E6E6E6" stroke-width="1.1" stroke-miterlimit="10"/>
<path d="M109.742 103.423C108.788 105.837 184.629 57.6964 173.494 27.4277C172.648 25.1206 170.31 27.643 170.31 27.643C170.31 27.643 171.556 21.0756 166.234 24.5669C166.234 24.5669 166.342 21.9061 164.988 21.5985C149.316 17.8149 120.047 77.7064 109.742 103.423Z" fill="#EFFEE8" stroke="#E6E6E6" stroke-width="1.1" stroke-miterlimit="10"/>
<path d="M104.482 104.884C106.235 105.93 84.7178 7.75607 61.4164 7.75607C60.4012 7.75607 61.1087 11.1244 61.1087 11.1244C61.1087 11.1244 57.0022 8.26363 56.4946 9.26336C56.149 10.9265 56.0454 12.6308 56.187 14.3235C56.187 14.3235 53.3416 11.8165 52.4188 12.6317C45.6821 18.6608 72.598 85.8427 104.482 104.884Z" fill="#EFFEE8" stroke="#E6E6E6" stroke-width="1.1" stroke-miterlimit="10"/>
<path d="M113.895 102.638C110.25 104.961 210.131 103.269 210.131 81.6592C210.131 80.4442 207.162 80.1212 207.162 80.1212C207.162 80.1212 210.7 76.5837 209.485 75.6608C208.841 75.1163 208.087 74.7164 207.275 74.4882C206.463 74.26 205.612 74.2088 204.778 74.3381C204.778 74.3381 208.992 71.8773 204.993 69.3087C193.92 62.1568 144.318 83.2434 113.895 102.638Z" fill="#EFFEE8" stroke="#E6E6E6" stroke-width="1.1" stroke-miterlimit="10"/>
<path d="M103.405 102.9C105.635 105.868 119.539 16.1384 90.2391 2.41904C89.4086 2.03453 88.5011 5.06448 88.5011 5.06448C88.5011 5.06448 86.1633 2.98812 85.7326 3.89557C84.9757 5.39493 84.303 6.93538 83.7178 8.50971C83.7178 8.50971 82.1797 5.15677 79.9496 6.32568C67.4299 12.9393 89.5316 84.3046 103.405 102.9Z" fill="#EFFEE8" stroke="#E6E6E6" stroke-width="1.1" stroke-miterlimit="10"/>
<path d="M100.606 106.96C103.251 107.175 51.7884 41.793 29.6098 40.3011C22.5194 39.8089 24.1805 45.0691 24.1805 45.0691C24.1805 45.0691 18.8588 43.531 18.0283 44.6845C17.1977 45.8381 18.3359 49.2987 19.3818 52.1595C19.3818 52.1595 15.752 49.7601 15.3059 51.5442C10.8456 69.847 70.2296 104.468 100.606 106.96Z" fill="#EFFEE8" stroke="#E6E6E6" stroke-width="1.1" stroke-miterlimit="10"/>
<path d="M102.267 103.684C104.22 104.484 59.0631 11.4012 40.0682 21.9676C39.1761 22.4598 41.0064 26.228 39.3761 26.2434C39.3761 26.2434 34.7619 23.3519 34.1928 24.7053C33.6238 26.0588 34.4082 27.7814 33.8083 29.0734C32.9393 28.9405 32.0534 28.9666 31.1937 29.1503C30.3631 29.4733 30.2554 31.7035 29.4403 34.1643C26.0412 44.6231 77.8272 93.6867 102.267 103.684Z" fill="#EFFEE8" stroke="#E6E6E6" stroke-width="1.1" stroke-miterlimit="10"/>
<path d="M101.406 109.836C103.205 109.606 25.734 42.4544 9.27691 63.8025C8.12338 65.3406 12.1992 67.9552 12.1992 67.9552C12.1992 67.9552 6.60071 68.2321 6.04702 69.3702C5.49332 70.5084 9.79985 75.2763 9.79985 75.2763C9.79985 75.2763 5.47794 75.4455 5.27799 75.9839C1.0176 87.2423 57.4793 115.696 101.406 109.836Z" fill="#EFFEE8" stroke="#E6E6E6" stroke-width="1.1" stroke-miterlimit="10"/>
<path d="M100.683 107.452C102.621 105.714 13.414 96.8705 2.10932 121.833C1.23263 123.756 5.84677 125.294 8.16922 125.048C8.16922 125.048 3.67813 128.523 3.95498 129.662C4.23183 130.8 8.1846 132.107 8.1846 132.107C8.1846 132.107 4.50867 134.814 5.03161 135.352C17.3052 147.918 85.8252 120.741 100.683 107.452Z" fill="#EFFEE8" stroke="#E6E6E6" stroke-width="1.1" stroke-miterlimit="10"/>
<path d="M96.0223 112.189C98.4063 111.728 18.7201 71.1389 5.56979 92.7485C4.64696 94.2865 7.8461 95.6246 7.8461 95.6246C7.8461 95.6246 3.9856 97.3319 3.89332 98.0855C3.80104 98.8392 4.23169 100.285 6.81561 102.361C6.81561 102.361 3.58571 103.084 3.64723 103.761C5.30832 121.602 61.8008 118.803 96.0223 112.189Z" fill="#EFFEE8" stroke="#E6E6E6" stroke-width="1.1" stroke-miterlimit="10"/>
<path d="M99.2372 116.834C98.0682 115.066 14.137 153.547 17.8437 178.172C18.0437 179.417 19.0434 180.402 22.9039 178.633C22.9039 178.633 20.766 182.801 22.5194 183.493C24.2728 184.185 27.6718 183.17 27.6718 183.17C27.6718 183.17 25.6724 186.339 27.0874 187C43.1292 194.536 97.9606 133.461 99.7601 116.834H99.2372Z" fill="#EFFEE8" stroke="#E6E6E6" stroke-width="1.1" stroke-miterlimit="10"/>
<path d="M100.191 118.219C100.037 116.511 27.318 162.56 36.131 183.909C36.7308 185.447 40.0838 184.216 40.0838 184.216C40.0838 184.216 37.4999 188.523 38.7764 190.507C39.1763 191.107 40.9605 191.676 43.2675 190.045C43.2675 190.045 42.3755 193.583 43.2675 193.952C59.3863 200.412 101.406 131.553 100.191 118.219Z" fill="#EFFEE8" stroke="#E6E6E6" stroke-width="1.1" stroke-miterlimit="10"/>
<path d="M97.3143 112.574C98.3294 111.374 5.69287 128.062 10.5223 154.593C10.9376 156.931 15.2441 155.47 15.2441 155.47C15.2441 155.47 12.245 159.7 13.1524 160.361C14.5299 160.89 15.9845 161.192 17.4589 161.253C17.4589 161.253 15.075 163.929 16.1516 164.668C33.7315 176.48 86.2711 126.17 97.3143 112.574Z" fill="#EFFEE8" stroke="#E6E6E6" stroke-width="1.1" stroke-miterlimit="10"/>
<path d="M132.412 112.482C132.412 116.327 129.121 117.834 128.152 122.141C127.075 126.847 125.568 127.016 123.538 127.232C119.093 127.708 119.154 131.307 117.201 132.615C114.679 134.322 110.541 130.815 108.142 130.815C106.465 130.815 105.973 135.552 103.435 135.783C100.898 136.014 104.543 132.43 94.8993 130.907C92.8537 130.585 92.5769 126.478 90.8389 124.002C89.6854 122.356 86.6093 122.694 86.517 120.787C86.4247 118.88 84.7175 116.942 85.9325 114.635C87.1476 112.328 87.6398 108.344 86.9938 107.821C84.8251 106.083 86.2401 103.053 86.517 99.3314C86.7631 95.9938 90.639 96.1476 93.0075 94.1174C95.1147 92.3641 95.7453 88.3344 97.6217 87.55C98.6676 87.0886 101.282 89.4264 103.559 88.7958C106.081 88.0883 107.173 82.6436 109.711 84.4277C110.757 85.1506 111.849 90.0724 122.415 86.3195C124.922 85.4275 124.445 89.288 125.983 92.0565C127.183 94.1943 130.69 95.1325 130.843 96.2399C131.09 98.0395 132.043 101.792 134.243 103.715C136.78 106.053 132.412 110.744 132.412 112.482Z" fill="#EFFEE8" stroke="#E6E6E6" stroke-width="0.75" stroke-miterlimit="10"/>
<path d="M129.09 112.113C129.09 115.373 126.306 116.727 125.476 120.31C124.568 124.309 123.276 124.448 121.538 124.632C117.77 125.032 117.816 128.108 116.171 129.246C114.002 130.692 110.495 127.708 108.48 127.708C107.065 127.708 106.635 131.723 104.481 131.923C102.328 132.123 105.435 129.062 97.2219 127.785C95.4378 127.493 95.2532 124.002 93.7152 121.879C92.7308 120.495 90.1161 120.772 90.0546 119.157C89.9931 117.542 88.5166 115.896 89.5471 113.958C90.5776 112.02 91.0851 108.621 90.4545 108.175C88.6089 106.637 89.8085 104.099 90.0546 100.946C90.2546 98.1471 93.4998 98.224 95.5762 96.486C97.3603 94.948 97.8987 91.5797 99.4521 90.9029C100.329 90.5184 102.528 92.441 104.481 91.9642C106.435 91.4874 107.558 86.7656 109.665 88.3036C110.557 88.9188 111.495 93.1023 120.431 89.8417C122.569 89.088 122.154 92.3794 123.507 94.7173C124.522 96.5476 127.506 97.3166 127.629 98.2702C127.898 100.64 128.91 102.863 130.521 104.622C132.797 106.637 129.09 110.621 129.09 112.113Z" fill="#EFFEE8" stroke="#E6E6E6" stroke-width="0.75" stroke-miterlimit="10"/>
<path d="M101.528 109.313C103.167 109.313 104.496 107.984 104.496 106.345C104.496 104.705 103.167 103.376 101.528 103.376C99.8886 103.376 98.5596 104.705 98.5596 106.345C98.5596 107.984 99.8886 109.313 101.528 109.313Z" fill="#EFFEE8" stroke="#E6E6E6" stroke-width="0.75" stroke-miterlimit="10"/>
<path d="M102.435 103.146C103.862 103.146 105.019 101.989 105.019 100.562C105.019 99.1348 103.862 97.9779 102.435 97.9779C101.008 97.9779 99.8511 99.1348 99.8511 100.562C99.8511 101.989 101.008 103.146 102.435 103.146Z" fill="#EFFEE8" stroke="#E6E6E6" stroke-width="0.75" stroke-miterlimit="10"/>
<path d="M102.819 100.839C104.246 100.839 105.403 99.6818 105.403 98.2548C105.403 96.8277 104.246 95.6708 102.819 95.6708C101.392 95.6708 100.235 96.8277 100.235 98.2548C100.235 99.6818 101.392 100.839 102.819 100.839Z" fill="#EFFEE8" stroke="#E6E6E6" stroke-width="0.75" stroke-miterlimit="10"/>
<path d="M113.386 109.359C114.983 109.359 116.277 108.065 116.277 106.468C116.277 104.871 114.983 103.576 113.386 103.576C111.789 103.576 110.494 104.871 110.494 106.468C110.494 108.065 111.789 109.359 113.386 109.359Z" fill="#EFFEE8" stroke="#E6E6E6" stroke-width="0.75" stroke-miterlimit="10"/>
<path d="M118.077 106.791C119.504 106.791 120.661 105.634 120.661 104.207C120.661 102.78 119.504 101.623 118.077 101.623C116.65 101.623 115.493 102.78 115.493 104.207C115.493 105.634 116.65 106.791 118.077 106.791Z" fill="#EFFEE8" stroke="#E6E6E6" stroke-width="0.75" stroke-miterlimit="10"/>
<path d="M104.388 111.205C105.951 111.205 107.218 109.938 107.218 108.375C107.218 106.812 105.951 105.545 104.388 105.545C102.825 105.545 101.558 106.812 101.558 108.375C101.558 109.938 102.825 111.205 104.388 111.205Z" fill="#EFFEE8" stroke="#E6E6E6" stroke-width="0.75" stroke-miterlimit="10"/>
<path d="M100.882 113.651C102.495 113.651 103.804 112.342 103.804 110.728C103.804 109.114 102.495 107.806 100.882 107.806C99.2676 107.806 97.9592 109.114 97.9592 110.728C97.9592 112.342 99.2676 113.651 100.882 113.651Z" fill="#EFFEE8" stroke="#E6E6E6" stroke-width="0.75" stroke-miterlimit="10"/>
<path d="M111.909 102.1C113.523 102.1 114.832 100.792 114.832 99.1776C114.832 97.5637 113.523 96.2553 111.909 96.2553C110.295 96.2553 108.987 97.5637 108.987 99.1776C108.987 100.792 110.295 102.1 111.909 102.1Z" fill="#EFFEE8" stroke="#E6E6E6" stroke-width="0.75" stroke-miterlimit="10"/>
<path d="M119.461 116.665C121.322 116.665 122.83 115.157 122.83 113.297C122.83 111.437 121.322 109.929 119.461 109.929C117.601 109.929 116.093 111.437 116.093 113.297C116.093 115.157 117.601 116.665 119.461 116.665Z" fill="#EFFEE8" stroke="#E6E6E6" stroke-width="0.75" stroke-miterlimit="10"/>
<path d="M115.154 105.161C116.768 105.161 118.077 103.852 118.077 102.238C118.077 100.624 116.768 99.316 115.154 99.316C113.54 99.316 112.232 100.624 112.232 102.238C112.232 103.852 113.54 105.161 115.154 105.161Z" fill="#EFFEE8" stroke="#E6E6E6" stroke-width="0.75" stroke-miterlimit="10"/>
<path d="M114.001 115.942C115.615 115.942 116.923 114.634 116.923 113.02C116.923 111.406 115.615 110.098 114.001 110.098C112.387 110.098 111.078 111.406 111.078 113.02C111.078 114.634 112.387 115.942 114.001 115.942Z" fill="#EFFEE8" stroke="#E6E6E6" stroke-width="0.75" stroke-miterlimit="10"/>
<path d="M99.2977 119.357C100.912 119.357 102.22 118.048 102.22 116.434C102.22 114.821 100.912 113.512 99.2977 113.512C97.6837 113.512 96.3754 114.821 96.3754 116.434C96.3754 118.048 97.6837 119.357 99.2977 119.357Z" fill="#EFFEE8" stroke="#E6E6E6" stroke-width="0.75" stroke-miterlimit="10"/>
<path d="M96.6519 115.404C98.2658 115.404 99.5742 114.096 99.5742 112.482C99.5742 110.868 98.2658 109.559 96.6519 109.559C95.038 109.559 93.7296 110.868 93.7296 112.482C93.7296 114.096 95.038 115.404 96.6519 115.404Z" fill="#EFFEE8" stroke="#E6E6E6" stroke-width="0.75" stroke-miterlimit="10"/>
<path d="M97.3594 110.728C98.9734 110.728 100.282 109.42 100.282 107.806C100.282 106.192 98.9734 104.884 97.3594 104.884C95.7455 104.884 94.4371 106.192 94.4371 107.806C94.4371 109.42 95.7455 110.728 97.3594 110.728Z" fill="#EFFEE8" stroke="#E6E6E6" stroke-width="0.75" stroke-miterlimit="10"/>
<path d="M97.7746 106.668C99.3885 106.668 100.697 105.36 100.697 103.746C100.697 102.132 99.3885 100.823 97.7746 100.823C96.1607 100.823 94.8523 102.132 94.8523 103.746C94.8523 105.36 96.1607 106.668 97.7746 106.668Z" fill="#EFFEE8" stroke="#E6E6E6" stroke-width="0.75" stroke-miterlimit="10"/>
<path d="M101.466 106.668C103.08 106.668 104.388 105.36 104.388 103.746C104.388 102.132 103.08 100.823 101.466 100.823C99.8521 100.823 98.5437 102.132 98.5437 103.746C98.5437 105.36 99.8521 106.668 101.466 106.668Z" fill="#EFFEE8" stroke="#E6E6E6" stroke-width="0.75" stroke-miterlimit="10"/>
<path d="M99.1897 103.13C100.804 103.13 102.112 101.822 102.112 100.208C102.112 98.5941 100.804 97.2858 99.1897 97.2858C97.5758 97.2858 96.2675 98.5941 96.2675 100.208C96.2675 101.822 97.5758 103.13 99.1897 103.13Z" fill="#EFFEE8" stroke="#E6E6E6" stroke-width="0.75" stroke-miterlimit="10"/>
<path d="M104.065 118.865C105.679 118.865 106.988 117.556 106.988 115.942C106.988 114.328 105.679 113.02 104.065 113.02C102.451 113.02 101.143 114.328 101.143 115.942C101.143 117.556 102.451 118.865 104.065 118.865Z" fill="#EFFEE8" stroke="#E6E6E6" stroke-width="0.75" stroke-miterlimit="10"/>
<path d="M102.097 116.558C103.711 116.558 105.019 115.249 105.019 113.635C105.019 112.021 103.711 110.713 102.097 110.713C100.483 110.713 99.1746 112.021 99.1746 113.635C99.1746 115.249 100.483 116.558 102.097 116.558Z" fill="#EFFEE8" stroke="#E6E6E6" stroke-width="0.75" stroke-miterlimit="10"/>
<path d="M108.51 118.326C110.124 118.326 111.433 117.018 111.433 115.404C111.433 113.79 110.124 112.482 108.51 112.482C106.896 112.482 105.588 113.79 105.588 115.404C105.588 117.018 106.896 118.326 108.51 118.326Z" fill="#EFFEE8" stroke="#E6E6E6" stroke-width="0.75" stroke-miterlimit="10"/>
<path d="M113.663 123.679C115.277 123.679 116.585 122.37 116.585 120.756C116.585 119.142 115.277 117.834 113.663 117.834C112.049 117.834 110.74 119.142 110.74 120.756C110.74 122.37 112.049 123.679 113.663 123.679Z" fill="#EFFEE8" stroke="#E6E6E6" stroke-width="0.75" stroke-miterlimit="10"/>
<path d="M122.153 111.62C123.639 111.62 124.844 110.415 124.844 108.929C124.844 107.442 123.639 106.237 122.153 106.237C120.666 106.237 119.461 107.442 119.461 108.929C119.461 110.415 120.666 111.62 122.153 111.62Z" fill="#EFFEE8" stroke="#E6E6E6" stroke-width="0.75" stroke-miterlimit="10"/>
<path d="M119.03 102.715C120.644 102.715 121.952 101.407 121.952 99.7928C121.952 98.1789 120.644 96.8705 119.03 96.8705C117.416 96.8705 116.108 98.1789 116.108 99.7928C116.108 101.407 117.416 102.715 119.03 102.715Z" fill="#EFFEE8" stroke="#E6E6E6" stroke-width="0.75" stroke-miterlimit="10"/>
<path d="M115.739 120.772C117.353 120.772 118.662 119.463 118.662 117.849C118.662 116.236 117.353 114.927 115.739 114.927C114.125 114.927 112.817 116.236 112.817 117.849C112.817 119.463 114.125 120.772 115.739 120.772Z" fill="#EFFEE8" stroke="#E6E6E6" stroke-width="0.75" stroke-miterlimit="10"/>
<path d="M109.479 125.155C111.365 125.155 112.894 123.626 112.894 121.741C112.894 119.855 111.365 118.326 109.479 118.326C107.593 118.326 106.065 119.855 106.065 121.741C106.065 123.626 107.593 125.155 109.479 125.155Z" fill="#EFFEE8" stroke="#E6E6E6" stroke-width="0.75" stroke-miterlimit="10"/>
<path d="M107.403 102.438C109.017 102.438 110.326 101.13 110.326 99.5159C110.326 97.902 109.017 96.5937 107.403 96.5937C105.79 96.5937 104.481 97.902 104.481 99.5159C104.481 101.13 105.79 102.438 107.403 102.438Z" fill="#EFFEE8" stroke="#E6E6E6" stroke-width="0.75" stroke-miterlimit="10"/>
<path d="M107.403 100.362C109.017 100.362 110.326 99.0535 110.326 97.4396C110.326 95.8257 109.017 94.5173 107.403 94.5173C105.79 94.5173 104.481 95.8257 104.481 97.4396C104.481 99.0535 105.79 100.362 107.403 100.362Z" fill="#EFFEE8" stroke="#E6E6E6" stroke-width="0.75" stroke-miterlimit="10"/>
<path d="M105.342 122.648C106.956 122.648 108.264 121.34 108.264 119.726C108.264 118.112 106.956 116.804 105.342 116.804C103.728 116.804 102.419 118.112 102.419 119.726C102.419 121.34 103.728 122.648 105.342 122.648Z" fill="#EFFEE8" stroke="#E6E6E6" stroke-width="0.75" stroke-miterlimit="10"/>
<path d="M101.143 122.971C102.757 122.971 104.065 121.663 104.065 120.049C104.065 118.435 102.757 117.127 101.143 117.127C99.5289 117.127 98.2206 118.435 98.2206 120.049C98.2206 121.663 99.5289 122.971 101.143 122.971Z" fill="#EFFEE8" stroke="#E6E6E6" stroke-width="0.75" stroke-miterlimit="10"/>
<path d="M120.046 119.587C121.66 119.587 122.968 118.279 122.968 116.665C122.968 115.051 121.66 113.743 120.046 113.743C118.432 113.743 117.123 115.051 117.123 116.665C117.123 118.279 118.432 119.587 120.046 119.587Z" fill="#EFFEE8" stroke="#E6E6E6" stroke-width="0.75" stroke-miterlimit="10"/>
<path d="M112.832 113.297C114.446 113.297 115.754 111.988 115.754 110.375C115.754 108.761 114.446 107.452 112.832 107.452C111.218 107.452 109.91 108.761 109.91 110.375C109.91 111.988 111.218 113.297 112.832 113.297Z" fill="#EFFEE8" stroke="#E6E6E6" stroke-width="0.75" stroke-miterlimit="10"/>
<path d="M122.706 106.806C124.32 106.806 125.629 105.498 125.629 103.884C125.629 102.27 124.32 100.962 122.706 100.962C121.092 100.962 119.784 102.27 119.784 103.884C119.784 105.498 121.092 106.806 122.706 106.806Z" fill="#EFFEE8" stroke="#E6E6E6" stroke-width="0.75" stroke-miterlimit="10"/>
<path d="M115.154 101.177C116.768 101.177 118.077 99.8687 118.077 98.2547C118.077 96.6408 116.768 95.3325 115.154 95.3325C113.54 95.3325 112.232 96.6408 112.232 98.2547C112.232 99.8687 113.54 101.177 115.154 101.177Z" fill="#EFFEE8" stroke="#E6E6E6" stroke-width="0.75" stroke-miterlimit="10"/>
<path d="M111.909 99.1776C113.523 99.1776 114.832 97.8692 114.832 96.2553C114.832 94.6414 113.523 93.333 111.909 93.333C110.295 93.333 108.987 94.6414 108.987 96.2553C108.987 97.8692 110.295 99.1776 111.909 99.1776Z" fill="#EFFEE8" stroke="#E6E6E6" stroke-width="0.75" stroke-miterlimit="10"/>
<path d="M117.123 112.174C118.737 112.174 120.046 110.866 120.046 109.252C120.046 107.638 118.737 106.329 117.123 106.329C115.509 106.329 114.201 107.638 114.201 109.252C114.201 110.866 115.509 112.174 117.123 112.174Z" fill="#EFFEE8" stroke="#E6E6E6" stroke-width="0.75" stroke-miterlimit="10"/>
<path d="M104.388 125.878C106.002 125.878 107.31 124.57 107.31 122.956C107.31 121.342 106.002 120.033 104.388 120.033C102.774 120.033 101.466 121.342 101.466 122.956C101.466 124.57 102.774 125.878 104.388 125.878Z" fill="#EFFEE8" stroke="#E6E6E6" stroke-width="0.75" stroke-miterlimit="10"/>
<path d="M105.604 106.376C106.98 106.376 108.095 105.26 108.095 103.884C108.095 102.508 106.98 101.392 105.604 101.392C104.228 101.392 103.112 102.508 103.112 103.884C103.112 105.26 104.228 106.376 105.604 106.376Z" fill="#EFFEE8" stroke="#E6E6E6" stroke-width="0.75" stroke-miterlimit="10"/>
<path d="M110.341 105.545C111.717 105.545 112.832 104.43 112.832 103.053C112.832 101.677 111.717 100.562 110.341 100.562C108.965 100.562 107.849 101.677 107.849 103.053C107.849 104.43 108.965 105.545 110.341 105.545Z" fill="#EFFEE8" stroke="#E6E6E6" stroke-width="0.75" stroke-miterlimit="10"/>
<path d="M108.756 110.082C110.234 110.082 111.432 108.884 111.432 107.406C111.432 105.928 110.234 104.73 108.756 104.73C107.278 104.73 106.08 105.928 106.08 107.406C106.08 108.884 107.278 110.082 108.756 110.082Z" fill="#EFFEE8" stroke="#E6E6E6" stroke-width="0.75" stroke-miterlimit="10"/>
<path d="M121.599 116.434C123.213 116.434 124.522 115.126 124.522 113.512C124.522 111.898 123.213 110.59 121.599 110.59C119.985 110.59 118.677 111.898 118.677 113.512C118.677 115.126 119.985 116.434 121.599 116.434Z" fill="#EFFEE8" stroke="#E6E6E6" stroke-width="0.75" stroke-miterlimit="10"/>
<path d="M105.604 116.419C107.141 116.419 108.388 115.173 108.388 113.635C108.388 112.098 107.141 110.851 105.604 110.851C104.066 110.851 102.82 112.098 102.82 113.635C102.82 115.173 104.066 116.419 105.604 116.419Z" fill="#EFFEE8" stroke="#E6E6E6" stroke-width="0.75" stroke-miterlimit="10"/>
<path d="M109.649 114.927C111.186 114.927 112.433 113.681 112.433 112.143C112.433 110.606 111.186 109.359 109.649 109.359C108.111 109.359 106.865 110.606 106.865 112.143C106.865 113.681 108.111 114.927 109.649 114.927Z" fill="#EFFEE8" stroke="#E6E6E6" stroke-width="0.75" stroke-miterlimit="10"/>
<path d="M110.879 120.049C112.416 120.049 113.663 118.802 113.663 117.265C113.663 115.728 112.416 114.481 110.879 114.481C109.341 114.481 108.095 115.728 108.095 117.265C108.095 118.802 109.341 120.049 110.879 120.049Z" fill="#EFFEE8" stroke="#E6E6E6" stroke-width="0.75" stroke-miterlimit="10"/>
</g>
</svg>
