<svg width="37" height="37" viewBox="0 0 37 37" fill="none" xmlns="http://www.w3.org/2000/svg">
<g opacity="0.8">
<path d="M35.4999 0.629486L26.3682 0.629486C25.0361 0.629486 24.3649 2.23633 25.3012 3.18382L27.5983 5.50834L19.6449 13.3438C19.0541 13.9258 19.0477 14.8768 19.6306 15.4667L22.1235 17.9893C22.7051 18.5779 23.6536 18.5843 24.2431 18.0035L32.1998 10.1649L34.4329 12.4248C35.3753 13.3784 36.9999 12.7111 36.9999 11.3704L36.9999 2.12949C36.9999 1.30106 36.3283 0.629486 35.4999 0.629486Z" fill="#232323"/>
</g>
<g opacity="0.4">
<path d="M2.16298 36.6331L11.1892 36.6331C12.5256 36.6331 13.1948 35.0174 12.2499 34.0724L10.0149 31.8374L17.9014 24.1597C18.5006 23.5763 18.5071 22.6155 17.9157 22.0242L15.4601 19.5685C14.8798 18.9883 13.9411 18.982 13.3531 19.5544L5.43769 27.2602L3.22364 25.0462C2.27869 24.1012 0.662976 24.7705 0.662976 26.1068L0.662976 35.1331C0.662976 35.9615 1.33455 36.6331 2.16298 36.6331Z" fill="#232323"/>
</g>
</svg>
