<svg width="927" height="166" viewBox="0 0 927 166" fill="none" xmlns="http://www.w3.org/2000/svg">
<mask id="mask0" mask-type="alpha" maskUnits="userSpaceOnUse" x="0" y="0" width="927" height="166">
<rect width="927" height="166" fill="white"/>
</mask>
<g mask="url(#mask0)">
<g opacity="0.05">
<path d="M5.5 131.5C19.1667 98.3333 72.9 44.4 178.5 94C310.5 156 319 32.5 380.5 32.5C442 32.5 512 78 607 32.5C683 -3.9 729.333 -40.3333 743 -54" stroke="black" stroke-width="2" stroke-linecap="round" stroke-linejoin="round"/>
<path d="M284.5 156C351 118.5 343.5 94.5 395 73.5C460.948 46.6084 477.5 181 606 104C708.8 42.4 746 82 808.5 119C871 156 913.6 98.3 954 81.5" stroke="black" stroke-width="2" stroke-linecap="round"/>
</g>
<rect x="-19" y="107.998" width="74" height="52" transform="rotate(-39.428 -19 107.998)" fill="url(#paint0_linear)"/>
<rect x="266" y="145.998" width="74" height="52" transform="rotate(-39.428 266 145.998)" fill="url(#paint1_linear)"/>
</g>
<defs>
<linearGradient id="paint0_linear" x1="-8.23891" y1="138.21" x2="49.5814" y2="130.083" gradientUnits="userSpaceOnUse">
<stop stop-color="white"/>
<stop offset="1" stop-color="white" stop-opacity="0"/>
</linearGradient>
<linearGradient id="paint1_linear" x1="276.847" y1="169.807" x2="332.427" y2="171.49" gradientUnits="userSpaceOnUse">
<stop stop-color="white"/>
<stop offset="1" stop-color="white" stop-opacity="0"/>
</linearGradient>
</defs>
</svg>
