<svg width="55" height="54" viewBox="0 0 55 54" fill="none" xmlns="http://www.w3.org/2000/svg">
<path fill-rule="evenodd" clip-rule="evenodd" d="M27.25 54C42.1617 54 54.25 41.9117 54.25 27C54.25 12.0883 42.1617 0 27.25 0C12.3383 0 0.25 12.0883 0.25 27C0.25 41.9117 12.3383 54 27.25 54ZM27.2498 49.0909C15.0494 49.0909 5.15894 39.2005 5.15894 27C5.15894 14.7995 15.0494 4.9091 27.2498 4.9091C39.4503 4.9091 49.3408 14.7995 49.3408 27C49.3408 39.2005 39.4503 49.0909 27.2498 49.0909ZM26.5315 38.5536L23.0602 35.0823L31.1428 26.9998L23.0602 18.9172L26.5315 15.446L38.0853 26.9998L26.5315 38.5536Z" fill="#E6E6E6"/>
</svg>
