<svg width="40" height="40" viewBox="0 0 40 40" fill="none" xmlns="http://www.w3.org/2000/svg">
<path fill-rule="evenodd" clip-rule="evenodd" d="M20 40C8.9543 40 0 31.0457 0 20C0 8.9543 8.9543 0 20 0C31.0457 0 40 8.9543 40 20C40 31.0457 31.0457 40 20 40ZM20.0012 36.3638C29.0386 36.3638 36.3649 29.0375 36.3649 20.0001C36.3649 10.9628 29.0386 3.6365 20.0012 3.6365C10.9638 3.6365 3.63758 10.9628 3.63758 20.0001C3.63758 29.0375 10.9638 36.3638 20.0012 36.3638ZM14.0118 28.5584L19.9989 22.5713L25.986 28.5584L28.5573 25.9871L22.5702 20L28.5573 14.0129L25.986 11.4416L19.9989 17.4287L14.0118 11.4416L11.4405 14.0129L17.4276 20L11.4405 25.9871L14.0118 28.5584Z" fill="#E6E6E6"/>
</svg>
