<svg width="55" height="54" viewBox="0 0 55 54" fill="none" xmlns="http://www.w3.org/2000/svg">
<path fill-rule="evenodd" clip-rule="evenodd" d="M27.75 54C12.8383 54 0.75 41.9117 0.75 27C0.75 12.0883 12.8383 0 27.75 0C42.6617 0 54.75 12.0883 54.75 27C54.75 41.9117 42.6617 54 27.75 54ZM27.7502 49.0909C39.9506 49.0909 49.8411 39.2005 49.8411 27C49.8411 14.7995 39.9506 4.9091 27.7502 4.9091C15.5497 4.9091 5.65924 14.7995 5.65924 27C5.65924 39.2005 15.5497 49.0909 27.7502 49.0909ZM28.4691 38.5537L31.9403 35.0825L23.8578 26.9999L31.9403 18.9173L28.4691 15.4461L16.9153 26.9999L28.4691 38.5537Z" fill="#E6E6E6"/>
</svg>
