<svg width="68" height="68" viewBox="0 0 68 68" fill="none" xmlns="http://www.w3.org/2000/svg">
<g filter="url(#filter0_d)">
<circle cx="34" cy="32" r="30" fill="#8CD258"/>
<path d="M20.1123 46.0001L22.0741 38.8348C20.862 36.7332 20.2254 34.3491 20.2284 31.923C20.2314 24.3013 26.4351 18.0994 34.0579 18.0994C37.7574 18.101 41.2294 19.5407 43.8407 22.1543C46.4521 24.7679 47.8888 28.2411 47.8876 31.9352C47.8842 39.5576 41.6799 45.7602 34.0579 45.7602H34.0522C31.7434 45.7604 29.4713 45.1822 27.4435 44.0784L20.1123 46.0001ZM27.7826 41.5742L28.2026 41.823C29.9739 42.872 31.9946 43.4253 34.0531 43.425H34.0575C40.3933 43.425 45.5494 38.2699 45.5519 31.9341C45.5519 28.8636 44.3587 25.9765 42.1881 23.8046C40.0176 21.6327 37.1328 20.436 34.0623 20.4349C27.722 20.4349 22.5656 25.5892 22.5633 31.9248C22.5601 34.0882 23.1693 36.2083 24.3205 38.04L24.5942 38.4747L23.4328 42.714L27.7826 41.5742Z" fill="white"/>
<path d="M20.1123 46.0001L22.0741 38.8348C20.862 36.7332 20.2254 34.3491 20.2284 31.923C20.2314 24.3013 26.4351 18.0994 34.0579 18.0994C37.7574 18.101 41.2294 19.5407 43.8407 22.1543C46.4521 24.7679 47.8888 28.2411 47.8876 31.9352C47.8842 39.5576 41.6799 45.7602 34.0579 45.7602H34.0522C31.7434 45.7604 29.4713 45.1822 27.4435 44.0784L20.1123 46.0001ZM27.7826 41.5742L28.2026 41.823C29.9739 42.872 31.9946 43.4253 34.0531 43.425H34.0575C40.3933 43.425 45.5494 38.2699 45.5519 31.9341C45.5519 28.8636 44.3587 25.9765 42.1881 23.8046C40.0176 21.6327 37.1328 20.436 34.0623 20.4349C27.722 20.4349 22.5656 25.5892 22.5633 31.9248C22.5601 34.0882 23.1693 36.2083 24.3205 38.04L24.5942 38.4747L23.4328 42.714L27.7826 41.5742Z" fill="white"/>
<path fill-rule="evenodd" clip-rule="evenodd" d="M30.6017 26.1448C30.3429 25.5688 30.0704 25.5578 29.8241 25.5476C29.6227 25.5391 29.3921 25.5396 29.1619 25.5396C28.9318 25.5396 28.5571 25.6262 28.2403 25.972C27.9235 26.3178 27.0308 27.1535 27.0308 28.8535C27.0308 30.5536 28.2691 32.1968 28.4417 32.4274C28.6143 32.658 30.8323 36.2582 34.3444 37.6431C37.2636 38.795 37.8575 38.5646 38.4916 38.5077C39.1256 38.4508 40.5356 37.6719 40.8232 36.865C41.1107 36.0582 41.1112 35.3675 41.0248 35.2223C40.9384 35.0772 40.708 34.9919 40.3624 34.8191C40.0168 34.6463 38.3181 33.8102 38.0013 33.695C37.6845 33.5798 37.4541 33.5222 37.2237 33.8681C36.9933 34.2139 36.3314 34.9919 36.1298 35.2223C35.9282 35.4527 35.7266 35.482 35.381 35.3092C35.0354 35.1364 33.9226 34.7714 32.6022 33.5941C31.5751 32.6783 30.8816 31.5473 30.68 31.2013C30.4784 30.8552 30.6583 30.6686 30.8316 30.4962C30.9869 30.3414 31.1772 30.0928 31.35 29.891C31.5228 29.6892 31.5804 29.5454 31.6956 29.315C31.8108 29.0846 31.7532 28.8823 31.6668 28.7095C31.5804 28.5367 30.909 26.8279 30.6017 26.1448Z" fill="white"/>
</g>
<defs>
<filter id="filter0_d" x="0" y="0" width="68" height="68" filterUnits="userSpaceOnUse" color-interpolation-filters="sRGB">
<feFlood flood-opacity="0" result="BackgroundImageFix"/>
<feColorMatrix in="SourceAlpha" type="matrix" values="0 0 0 0 0 0 0 0 0 0 0 0 0 0 0 0 0 0 127 0"/>
<feOffset dy="2"/>
<feGaussianBlur stdDeviation="2"/>
<feColorMatrix type="matrix" values="0 0 0 0 0 0 0 0 0 0 0 0 0 0 0 0 0 0 0.25 0"/>
<feBlend mode="normal" in2="BackgroundImageFix" result="effect1_dropShadow"/>
<feBlend mode="normal" in="SourceGraphic" in2="effect1_dropShadow" result="shape"/>
</filter>
</defs>
</svg>
