<svg width="22" height="23" viewBox="0 0 22 23" fill="none" xmlns="http://www.w3.org/2000/svg">
<path d="M0 22.0993L1.5539 16.4239C0.593841 14.7593 0.0895903 12.8709 0.0919746 10.9493C0.0943469 4.91239 5.00805 0 11.0459 0C13.9761 0.00127742 16.7262 1.14164 18.7946 3.21179C20.8629 5.28193 22.0009 8.03294 22 10.959C21.9973 16.9964 17.083 21.9093 11.0459 21.9093H11.0413C9.21261 21.9095 7.41299 21.4515 5.80681 20.5772L0 22.0993ZM6.07543 18.5937L6.40811 18.7908C7.81103 19.6216 9.41158 20.0599 11.0421 20.0596H11.0455C16.064 20.0596 20.1479 15.9765 20.1499 10.958C20.1499 8.52602 19.2048 6.23926 17.4856 4.51895C15.7663 2.79864 13.4814 1.85079 11.0494 1.84988C6.02744 1.84988 1.94315 5.9325 1.94132 10.9507C1.93882 12.6643 2.42137 14.3435 3.33317 15.7943L3.54996 16.1387L2.63004 19.4965L6.07543 18.5937Z" fill="white"/>
<path d="M0 22.0993L1.5539 16.4239C0.593841 14.7593 0.0895903 12.8709 0.0919746 10.9493C0.0943469 4.91239 5.00805 0 11.0459 0C13.9761 0.00127742 16.7262 1.14164 18.7946 3.21179C20.8629 5.28193 22.0009 8.03294 22 10.959C21.9973 16.9964 17.083 21.9093 11.0459 21.9093H11.0413C9.21261 21.9095 7.41299 21.4515 5.80681 20.5772L0 22.0993ZM6.07543 18.5937L6.40811 18.7908C7.81103 19.6216 9.41158 20.0599 11.0421 20.0596H11.0455C16.064 20.0596 20.1479 15.9765 20.1499 10.958C20.1499 8.52602 19.2048 6.23926 17.4856 4.51895C15.7663 2.79864 13.4814 1.85079 11.0494 1.84988C6.02744 1.84988 1.94315 5.9325 1.94132 10.9507C1.93882 12.6643 2.42137 14.3435 3.33317 15.7943L3.54996 16.1387L2.63004 19.4965L6.07543 18.5937Z" fill="white"/>
<path fill-rule="evenodd" clip-rule="evenodd" d="M8.3082 6.37248C8.10326 5.91626 7.88738 5.9075 7.6923 5.89947C7.5328 5.89272 7.35013 5.89309 7.16782 5.89309C6.98552 5.89309 6.68879 5.9617 6.43787 6.23562C6.18694 6.50953 5.4798 7.17141 5.4798 8.51799C5.4798 9.86457 6.46068 11.1661 6.59736 11.3487C6.73405 11.5314 8.49087 14.383 11.2727 15.4799C13.5849 16.3923 14.0553 16.2099 14.5575 16.1648C15.0598 16.1197 16.1766 15.5027 16.4043 14.8636C16.6321 14.2246 16.6324 13.6775 16.564 13.5625C16.4956 13.4475 16.3131 13.38 16.0394 13.2432C15.7656 13.1063 14.4201 12.444 14.1692 12.3528C13.9183 12.2615 13.7358 12.2159 13.5533 12.4898C13.3708 12.7638 12.8465 13.38 12.6868 13.5625C12.5272 13.745 12.3675 13.7682 12.0938 13.6313C11.82 13.4944 10.9386 13.2054 9.89275 12.2729C9.07922 11.5475 8.52992 10.6516 8.37025 10.3775C8.21057 10.1034 8.35309 9.95563 8.49032 9.81913C8.61332 9.6965 8.76406 9.49959 8.90092 9.33973C9.03779 9.17988 9.08341 9.066 9.17466 8.88351C9.2659 8.70103 9.22028 8.5408 9.15185 8.40394C9.08341 8.26707 8.55164 6.91356 8.3082 6.37248Z" fill="white"/>
</svg>
